<svg width="10" height="16" viewBox="0 0 10 16" fill="none" xmlns="http://www.w3.org/2000/svg">
<path d="M1.53478 0.969969C1.32697 0.965398 1.12291 1.02564 0.950951 1.1424C0.778995 1.25917 0.647693 1.4267 0.5753 1.62154C0.502907 1.81638 0.49302 2.0289 0.547013 2.22962C0.601006 2.43034 0.716197 2.60917 0.87657 2.74139L6.99573 7.98357L0.87657 13.2239C0.765632 13.3054 0.672724 13.409 0.603664 13.5281C0.534604 13.6472 0.490881 13.7793 0.475232 13.9161C0.459582 14.0529 0.472344 14.1914 0.512719 14.323C0.553093 14.4546 0.620209 14.5765 0.709865 14.681C0.799521 14.7855 0.909785 14.8703 1.03375 14.9302C1.15772 14.9901 1.29272 15.0237 1.43029 15.029C1.56787 15.0343 1.70506 15.0112 1.83327 14.9611C1.96149 14.9109 2.07796 14.8348 2.1754 14.7375L9.18128 8.74333C9.2913 8.64944 9.37964 8.53291 9.44022 8.40157C9.5008 8.27023 9.53217 8.12728 9.53217 7.98265C9.53217 7.83801 9.5008 7.69506 9.44022 7.56373C9.37964 7.43239 9.2913 7.31574 9.18128 7.22185L2.1754 1.22188C1.99842 1.06468 1.77142 0.975307 1.53478 0.969738V0.969969Z" fill="#C1121F"/>
</svg>
