<svg width="369" height="186" viewBox="0 0 369 186" fill="none" xmlns="http://www.w3.org/2000/svg">
<g filter="url(#filter0_d)">
<rect x="16.3438" y="16.2952" width="328.344" height="145.148" fill="white"/>
</g>
<path d="M137.012 73.6179L133.98 80.3993L129.315 82.9023C129.305 82.9055 129.292 82.9121 129.282 82.9185C129.2 82.9539 129.121 82.996 129.046 83.0414C129.029 83.0544 129.009 83.0642 128.993 83.0737C128.99 83.0737 128.99 83.0769 128.986 83.0769C128.15 83.5942 127.584 84.4966 127.554 85.5313C127.551 85.5313 127.548 85.5345 127.544 85.5376V97.3925L122.936 100.005V82.792C122.988 81.7767 123.558 80.8907 124.387 80.386C124.394 80.386 124.4 80.3829 124.404 80.3763L124.631 80.2567C124.644 80.2504 124.654 80.2437 124.664 80.2406L126.079 79.4807L127.544 78.6949L137.012 73.6179Z" fill="#1D3557"/>
<path d="M86.3652 74.0685L89.3971 80.8498L94.0616 83.3529C94.0715 83.3561 94.0847 83.3627 94.0944 83.369C94.1768 83.4045 94.2557 83.4465 94.3313 83.492C94.3478 83.505 94.3674 83.5148 94.3841 83.5243C94.3873 83.5243 94.3873 83.5274 94.3906 83.5274C95.2268 84.0448 95.793 84.9472 95.8226 85.9818C95.8259 85.9818 95.8291 85.985 95.8326 85.9882V97.8431L100.441 100.456V83.2426C100.389 82.2272 99.8191 81.3412 98.9896 80.8366C98.9832 80.8366 98.9764 80.8334 98.9732 80.8268L98.746 80.7073C98.7328 80.7009 98.7228 80.6943 98.7131 80.6911L97.2978 79.9313L95.8329 79.1455L86.3652 74.0685Z" fill="#1D3557"/>
<path d="M114.298 69.053V100.136H112.51V69.2501C112.51 68.8327 112.166 68.4944 111.741 68.4944C111.316 68.4944 110.972 68.8327 110.972 69.2501V100.136H109.021V69.459C109.021 65.6261 109.835 61.9818 111.302 58.6808C111.362 58.5443 111.5 58.4473 111.662 58.4473C111.823 58.4473 111.961 58.5443 112.02 58.6808C113.436 61.8652 114.243 65.3693 114.298 69.053Z" fill="#1D3557"/>
<path d="M141.506 63.5605L138.474 70.3453L125.892 77.091L122.936 78.6749L122.462 78.9304C122.43 78.95 122.393 78.9696 122.357 78.9857L122.344 78.9926V78.996C122.333 79.0018 122.321 79.0087 122.308 79.0145C121.467 79.52 120.892 80.4086 120.839 81.4309V81.4954C120.836 81.5242 120.836 81.5565 120.836 81.5864C120.836 81.6382 120.836 81.69 120.839 81.7419V101.196L116.23 103.808V100.965L118.23 102.259V91.5219L116.23 89.2807V78.9019C116.23 77.8117 116.82 76.8585 117.702 76.3314C117.745 76.3084 117.787 76.283 117.829 76.26H117.83L120.839 74.6461L141.506 63.5605Z" fill="#E63946"/>
<path d="M114.355 101.369V103.778L112.533 105.037V101.369H114.355Z" fill="#1D3557"/>
<path d="M108.965 101.369V103.778L110.969 105.037V101.369H108.965Z" fill="#1D3557"/>
<path d="M105.056 91.5219V102.259L107.146 100.906V103.808L102.538 101.196V81.7419C102.541 81.69 102.541 81.6382 102.541 81.5864C102.541 81.5565 102.541 81.5242 102.538 81.4954V81.4309C102.485 80.4086 101.909 79.52 101.069 79.0145C101.056 79.0087 101.043 79.0018 101.033 78.996V78.9926L101.02 78.9857C100.984 78.9696 100.947 78.95 100.914 78.9304L100.441 78.6749L97.4845 77.091L84.9027 70.3453L81.8711 63.5605L102.538 74.6461L105.547 76.26H105.548C105.59 76.283 105.632 76.3084 105.674 76.3314C106.557 76.8585 107.146 77.8117 107.146 78.9019V89.1781L105.056 91.5219Z" fill="#E63946"/>
<path d="M111.66 50.1162L112.459 52.5307H115.043L112.952 54.0229L113.751 56.4374L111.66 54.9451L109.57 56.4374L110.368 54.0229L108.277 52.5307H110.862L111.66 50.1162Z" fill="#E63946"/>
<path d="M127.545 97.3932V97.856L122.936 100.469L120.839 101.658L116.231 104.271L114.038 105.513L111.734 106.823V106.361L114.038 105.054L116.231 103.808L120.839 101.197L122.936 100.006L127.545 97.3932Z" fill="#1D3557"/>
<path d="M111.642 106.361V106.823L109.338 105.513L107.146 104.271L102.537 101.658L100.441 100.469L95.832 97.856V97.3932L100.441 100.006L102.537 101.197L107.146 103.808L109.338 105.054L111.642 106.361Z" fill="#1D3557"/>
<path d="M102.773 119.575C102.773 125.059 99.0427 127.641 94.7966 127.641H82.8789V111.508H94.7966C99.0427 111.508 102.773 114.09 102.773 119.575ZM98.55 119.575C98.55 115.657 96.3915 114.988 93.2011 114.988H87.1016V124.161H93.2011C96.3918 124.16 98.55 123.492 98.55 119.575Z" fill="#1D3557"/>
<path d="M117.766 124.207H107.936L106.176 127.641H101.531L110 111.508H115.701L124.194 127.641H119.525L117.766 124.207ZM116.194 121.119L112.863 114.574L109.508 121.119H116.194Z" fill="#E63946"/>
<path d="M140.732 114.988H132.756V127.64H128.533V114.988H120.557V111.508H140.732V114.988Z" fill="#1D3557"/>
<path d="M152.669 64.5492H168.251C171.975 64.5492 175.258 65.2679 178.1 66.7052C180.974 68.1099 183.196 70.1026 184.764 72.6832C186.364 75.2639 187.165 78.2692 187.165 81.6992C187.165 85.1292 186.364 88.1346 184.764 90.7152C183.196 93.2959 180.974 95.3049 178.1 96.7422C175.258 98.1469 171.975 98.8492 168.251 98.8492H152.669V64.5492ZM167.859 92.3322C171.289 92.3322 174.016 91.3849 176.042 89.4902C178.1 87.5629 179.129 84.9659 179.129 81.6992C179.129 78.4326 178.1 75.8519 176.042 73.9572C174.016 72.0299 171.289 71.0662 167.859 71.0662H160.607V92.3322H167.859ZM215.261 91.4992H199.336L196.298 98.8492H188.164L203.452 64.5492H211.292L226.629 98.8492H218.299L215.261 91.4992ZM212.762 85.4722L207.323 72.3402L201.884 85.4722H212.762ZM235.57 71.0172H224.594V64.5492H254.484V71.0172H243.508V98.8492H235.57V71.0172Z" fill="#1D3557"/>
<path d="M156.864 121.834C156.311 121.834 155.774 121.76 155.254 121.614C154.741 121.46 154.328 121.264 154.014 121.024L154.564 119.804C154.864 120.024 155.221 120.2 155.634 120.334C156.048 120.467 156.461 120.534 156.874 120.534C157.334 120.534 157.674 120.467 157.894 120.334C158.114 120.194 158.224 120.01 158.224 119.784C158.224 119.617 158.158 119.48 158.024 119.374C157.898 119.26 157.731 119.17 157.524 119.104C157.324 119.037 157.051 118.964 156.704 118.884C156.171 118.757 155.734 118.63 155.394 118.504C155.054 118.377 154.761 118.174 154.514 117.894C154.274 117.614 154.154 117.24 154.154 116.774C154.154 116.367 154.264 116 154.484 115.674C154.704 115.34 155.034 115.077 155.474 114.884C155.921 114.69 156.464 114.594 157.104 114.594C157.551 114.594 157.988 114.647 158.414 114.754C158.841 114.86 159.214 115.014 159.534 115.214L159.034 116.444C158.388 116.077 157.741 115.894 157.094 115.894C156.641 115.894 156.304 115.967 156.084 116.114C155.871 116.26 155.764 116.454 155.764 116.694C155.764 116.934 155.888 117.114 156.134 117.234C156.388 117.347 156.771 117.46 157.284 117.574C157.818 117.7 158.254 117.827 158.594 117.954C158.934 118.08 159.224 118.28 159.464 118.554C159.711 118.827 159.834 119.197 159.834 119.664C159.834 120.064 159.721 120.43 159.494 120.764C159.274 121.09 158.941 121.35 158.494 121.544C158.048 121.737 157.504 121.834 156.864 121.834ZM173.351 120.214H170.101L169.481 121.714H167.821L170.941 114.714H172.541L175.671 121.714H173.971L173.351 120.214ZM172.841 118.984L171.731 116.304L170.621 118.984H172.841ZM190.547 114.714L187.517 121.714H185.917L182.897 114.714H184.647L186.777 119.714L188.937 114.714H190.547ZM202.188 121.834C201.188 121.834 200.408 121.557 199.848 121.004C199.294 120.45 199.018 119.66 199.018 118.634V114.714H200.638V118.574C200.638 119.827 201.158 120.454 202.198 120.454C202.704 120.454 203.091 120.304 203.358 120.004C203.624 119.697 203.758 119.22 203.758 118.574V114.714H205.358V118.634C205.358 119.66 205.078 120.45 204.518 121.004C203.964 121.557 203.188 121.834 202.188 121.834ZM221.179 114.714V121.714H219.849L216.359 117.464V121.714H214.759V114.714H216.099L219.579 118.964V114.714H221.179ZM237.005 121.714L236.995 117.514L234.935 120.974H234.205L232.155 117.604V121.714H230.635V114.714H231.975L234.595 119.064L237.175 114.714H238.505L238.525 121.714H237.005ZM252.595 120.214H249.345L248.725 121.714H247.065L250.185 114.714H251.785L254.915 121.714H253.215L252.595 120.214ZM252.085 118.984L250.975 116.304L249.865 118.984H252.085Z" fill="#1D3557"/>
<defs>
<filter id="filter0_d" x="0.34375" y="0.295166" width="368.344" height="185.148" filterUnits="userSpaceOnUse" color-interpolation-filters="sRGB">
<feFlood flood-opacity="0" result="BackgroundImageFix"/>
<feColorMatrix in="SourceAlpha" type="matrix" values="0 0 0 0 0 0 0 0 0 0 0 0 0 0 0 0 0 0 127 0" result="hardAlpha"/>
<feOffset dx="4" dy="4"/>
<feGaussianBlur stdDeviation="10"/>
<feComposite in2="hardAlpha" operator="out"/>
<feColorMatrix type="matrix" values="0 0 0 0 0.113725 0 0 0 0 0.207843 0 0 0 0 0.341176 0 0 0 0.08 0"/>
<feBlend mode="normal" in2="BackgroundImageFix" result="effect1_dropShadow"/>
<feBlend mode="normal" in="SourceGraphic" in2="effect1_dropShadow" result="shape"/>
</filter>
</defs>
</svg>
