<svg width="48" height="48" viewBox="0 0 48 48" fill="none" xmlns="http://www.w3.org/2000/svg">
<path d="M24 0C37.2544 0 48 10.7456 48 24C48 37.2544 37.2544 48 24 48C10.7456 48 0 37.2544 0 24C0 10.7456 10.7456 0 24 0ZM20.4103 35.3878V24.4622H18.8672C18.3984 24.4622 18.0187 24.0816 18.0187 23.6138V20.1544C18.0187 19.6884 18.4003 19.3069 18.8672 19.3069H20.4103V16.5253C20.4103 13.8956 22.5431 11.7638 25.1728 11.7638H29.1328C29.6016 11.7638 29.9812 12.1434 29.9812 12.6122V16.0706C29.9812 16.5394 29.6016 16.9191 29.1328 16.9191H26.7891C26.5219 16.9191 26.3016 17.1394 26.3016 17.4066V19.3088L29.0813 19.3069C29.55 19.3397 29.9297 19.6556 29.9297 20.1544C29.8472 21.3263 29.7328 22.5103 29.6334 23.6841C29.5969 24.1219 29.2284 24.4622 28.7887 24.4622H26.3016V35.3878C26.3016 35.8537 25.9209 36.2353 25.4541 36.2353L21.2587 36.2362C20.7909 36.2362 20.4103 35.8556 20.4103 35.3878ZM21.5184 35.13H25.1934V23.3541H28.5506L28.7991 20.4122H25.1934V17.4066C25.1934 16.5253 25.9078 15.8109 26.7891 15.8109H28.8731V12.8719H25.1728C23.1544 12.8719 21.5184 14.5078 21.5184 16.5253V20.4141H19.1269V23.3541H21.5184V35.13ZM24 1.10719C11.3569 1.10719 1.10719 11.3569 1.10719 24C1.10719 36.6431 11.3569 46.8928 24 46.8928C36.6431 46.8928 46.8928 36.6431 46.8928 24C46.8928 11.3569 36.6431 1.10719 24 1.10719Z" fill="white"/>
</svg>
