<svg width="20" height="30" viewBox="0 0 20 30" fill="none" xmlns="http://www.w3.org/2000/svg">
<path d="M3.06857 0.939937C2.65297 0.930796 2.24484 1.05128 1.90092 1.28481C1.55701 1.51834 1.29441 1.85339 1.14962 2.24307C1.00484 2.63275 0.985063 3.0578 1.09305 3.45924C1.20104 3.86068 1.43142 4.21833 1.75216 4.48278L13.9905 14.9671L1.75216 25.4478C1.53029 25.6109 1.34447 25.8179 1.20635 26.0561C1.06823 26.2943 0.980785 26.5586 0.949487 26.8321C0.918188 27.1057 0.943712 27.3827 1.02446 27.646C1.10521 27.9093 1.23944 28.1531 1.41875 28.362C1.59807 28.571 1.81859 28.7405 2.06653 28.8603C2.31446 28.9801 2.58446 29.0474 2.85961 29.058C3.13476 29.0686 3.40914 29.0225 3.66557 28.9221C3.922 28.8218 4.15495 28.6696 4.34983 28.4751L18.3616 16.4867C18.5816 16.2989 18.7583 16.0658 18.8795 15.8031C19.0006 15.5405 19.0634 15.2546 19.0634 14.9653C19.0634 14.676 19.0006 14.3901 18.8795 14.1275C18.7583 13.8648 18.5816 13.6315 18.3616 13.4437L4.34983 1.44375C3.99587 1.12936 3.54187 0.950615 3.06857 0.939476V0.939937Z" fill="#C1121F"/>
</svg>
