<svg width="369" height="186" viewBox="0 0 369 186" fill="none" xmlns="http://www.w3.org/2000/svg">
<g filter="url(#filter0_d)">
<rect x="16" y="16.2954" width="328.344" height="145.148" fill="white"/>
</g>
<path d="M120.85 120.74L123.358 122.339C126 124.023 129.133 121.042 127.582 118.32L112.65 92.097C112.387 91.6357 112.007 91.2522 111.549 90.9854C111.09 90.7185 110.569 90.5779 110.039 90.5778H83.8329C80.8287 90.5778 79.6829 94.4998 82.2168 96.1159L120.85 120.74Z" fill="url(#paint0_linear)"/>
<path d="M83.8327 86.5959H110.027C110.558 86.5961 111.079 86.4556 111.537 86.1887C111.996 85.9218 112.376 85.5381 112.638 85.0767L127.571 58.8539C129.121 56.129 125.986 53.1533 123.344 54.8321L82.2194 81.0549C79.6969 82.6739 80.8399 86.5959 83.8327 86.5959Z" fill="url(#paint1_linear)"/>
<path d="M153.142 57.3556H140.494V104.331H153.142V57.3556Z" fill="#1D3557"/>
<path d="M254.823 60.8249C253.522 58.5121 251.642 57.3556 249.185 57.3556H177.277C175.222 57.3364 173.18 57.6783 171.243 58.3657C169.474 58.9926 167.854 59.9774 166.483 61.2586C165.143 62.5311 164.084 64.0694 163.373 65.775C162.611 67.6185 162.231 69.5975 162.255 71.5923C162.228 73.5754 162.609 75.5428 163.373 77.3727C164.085 79.0568 165.145 80.5716 166.483 81.8177C167.866 83.0827 169.483 84.0646 171.243 84.7079C173.173 85.424 175.218 85.7824 177.277 85.7656H197.947C198.36 85.7497 198.772 85.8185 199.157 85.9677C199.542 86.1168 199.892 86.3432 200.187 86.6329C200.767 87.2094 201.056 88.0026 201.054 89.0127C201.052 90.0229 200.763 90.8064 200.187 91.3635C199.887 91.6427 199.534 91.8598 199.15 92.0023C198.766 92.1448 198.357 92.2099 197.947 92.1938H155.533V104.334H198.526C200.597 104.36 202.657 104.018 204.608 103.323C206.378 102.683 207.998 101.687 209.368 100.396C210.72 99.1129 211.791 97.5623 212.512 95.8429C213.279 93.9757 213.659 91.9724 213.63 89.9541C213.65 87.9828 213.27 86.028 212.512 84.2081C211.796 82.4966 210.724 80.957 209.368 79.6917C207.985 78.4175 206.369 77.4234 204.608 76.7645C202.663 76.0421 200.601 75.6835 198.526 75.7068H177.856C177.448 75.7241 177.041 75.6559 176.662 75.5065C176.282 75.3572 175.937 75.1299 175.651 74.8395C175.367 74.5273 175.148 74.1623 175.005 73.7653C174.863 73.3683 174.8 72.9471 174.82 72.5258C174.82 71.5157 175.098 70.7435 175.651 70.2147C175.948 69.9438 176.296 69.7342 176.674 69.5981C177.053 69.462 177.454 69.4019 177.856 69.4214H235.914L216.663 104.326H230.612L247.799 71.952L255.82 87.056H244.489L239.14 97.1042H261.182L265.085 104.331H278.814L254.823 60.8249Z" fill="#1D3557"/>
<path d="M140.295 120.204V113.879H141.998V120.204H140.295Z" fill="#1D3557"/>
<path d="M158.797 120.204C158.612 120.212 158.429 120.169 158.268 120.08C158.105 119.963 157.958 119.826 157.832 119.67L154.571 116.148V120.204H152.916V114.598C152.916 114.12 153.18 113.879 153.709 113.879H154.119C154.234 113.878 154.348 113.888 154.46 113.908C154.551 113.927 154.64 113.956 154.725 113.995C154.803 114.035 154.877 114.084 154.944 114.141C155.018 114.205 155.087 114.274 155.153 114.347L158.128 117.568V113.879H159.773V119.554C159.786 119.64 159.779 119.729 159.752 119.813C159.725 119.897 159.68 119.973 159.618 120.036C159.557 120.099 159.482 120.147 159.399 120.176C159.316 120.205 159.228 120.215 159.141 120.204H158.797Z" fill="#1D3557"/>
<path d="M174.231 120.205C174.07 120.214 173.911 120.173 173.774 120.09C173.638 120.006 173.529 119.883 173.464 119.737L170.232 113.877H172.15L174.416 118.161L176.684 113.877H178.602L175.368 119.737C175.303 119.88 175.197 120 175.064 120.083C174.931 120.166 174.776 120.207 174.619 120.202L174.231 120.205Z" fill="#1D3557"/>
<path d="M189.082 120.204V113.879H195.164V115.505H190.785V118.57H195.166V120.204H189.082ZM191.351 117.705V116.351H195.087V117.705H191.351Z" fill="#1D3557"/>
<path d="M205.84 120.204V118.57H210.571C210.628 118.574 210.685 118.566 210.738 118.546C210.791 118.525 210.84 118.494 210.879 118.453C210.919 118.412 210.95 118.363 210.969 118.309C210.987 118.256 210.994 118.198 210.989 118.142C210.993 118.083 210.985 118.024 210.964 117.969C210.944 117.914 210.913 117.864 210.872 117.822C210.833 117.782 210.786 117.752 210.734 117.732C210.682 117.712 210.627 117.703 210.571 117.705H207.787C207.51 117.708 207.234 117.659 206.975 117.562C206.737 117.476 206.519 117.344 206.332 117.174C206.152 117.006 206.01 116.803 205.914 116.576C205.713 116.075 205.713 115.515 205.914 115.013C206.009 114.783 206.152 114.576 206.332 114.405C206.517 114.232 206.736 114.1 206.975 114.017C207.235 113.923 207.51 113.876 207.787 113.879H212.599V115.505H207.866C207.81 115.501 207.754 115.508 207.702 115.528C207.65 115.547 207.602 115.578 207.563 115.618C207.524 115.658 207.494 115.706 207.476 115.759C207.457 115.811 207.45 115.867 207.456 115.923C207.453 115.98 207.462 116.037 207.481 116.091C207.501 116.144 207.531 116.193 207.57 116.235C207.608 116.274 207.655 116.305 207.706 116.325C207.757 116.345 207.811 116.354 207.866 116.351H210.648C210.926 116.348 211.203 116.396 211.465 116.492C211.703 116.579 211.921 116.713 212.107 116.886C212.291 117.055 212.435 117.263 212.53 117.494C212.632 117.739 212.684 118.003 212.681 118.269C212.685 118.54 212.634 118.81 212.53 119.062C212.435 119.294 212.291 119.504 212.107 119.675C211.923 119.85 211.704 119.985 211.465 120.069C211.203 120.162 210.926 120.208 210.648 120.204H205.84Z" fill="#1D3557"/>
<path d="M225.345 120.204V115.505H223.018V113.879H229.364V115.505H227.037V120.204H225.345Z" fill="#1D3557"/>
<path d="M239.943 120.204V113.879H241.646V120.204H239.943Z" fill="#1D3557"/>
<path d="M258.445 120.204C258.261 120.212 258.078 120.169 257.916 120.08C257.753 119.963 257.605 119.825 257.477 119.67L254.22 116.148V120.204H252.564V114.598C252.564 114.12 252.829 113.879 253.358 113.879H253.768C253.881 113.878 253.994 113.888 254.106 113.908C254.197 113.927 254.286 113.956 254.37 113.995C254.448 114.035 254.521 114.084 254.587 114.141C254.662 114.205 254.732 114.274 254.799 114.347L257.787 117.568V113.879H259.429V119.554C259.443 119.641 259.436 119.73 259.41 119.813C259.383 119.897 259.337 119.974 259.276 120.037C259.215 120.1 259.139 120.148 259.056 120.177C258.973 120.206 258.884 120.215 258.797 120.204H258.445Z" fill="#1D3557"/>
<path d="M273.462 120.204C273.005 120.21 272.549 120.133 272.119 119.977C271.728 119.834 271.368 119.616 271.061 119.334C270.764 119.053 270.527 118.714 270.366 118.337C270.189 117.928 270.099 117.487 270.102 117.041C270.099 116.598 270.189 116.16 270.366 115.754C270.528 115.373 270.768 115.03 271.069 114.747C271.371 114.464 271.729 114.246 272.119 114.109C272.549 113.952 273.004 113.874 273.462 113.879H276.855V115.505H273.343C273.135 115.503 272.927 115.541 272.733 115.616C272.549 115.686 272.382 115.794 272.243 115.934C272.106 116.073 271.997 116.238 271.924 116.42C271.768 116.821 271.768 117.265 271.924 117.666C271.997 117.846 272.106 118.009 272.243 118.147C272.385 118.282 272.551 118.388 272.733 118.459C272.927 118.534 273.135 118.572 273.343 118.57H275.231V117.705H273.18V116.351H276.855V120.204H273.462Z" fill="#1D3557"/>
<defs>
<filter id="filter0_d" x="0" y="0.29541" width="368.344" height="185.148" filterUnits="userSpaceOnUse" color-interpolation-filters="sRGB">
<feFlood flood-opacity="0" result="BackgroundImageFix"/>
<feColorMatrix in="SourceAlpha" type="matrix" values="0 0 0 0 0 0 0 0 0 0 0 0 0 0 0 0 0 0 127 0" result="hardAlpha"/>
<feOffset dx="4" dy="4"/>
<feGaussianBlur stdDeviation="10"/>
<feComposite in2="hardAlpha" operator="out"/>
<feColorMatrix type="matrix" values="0 0 0 0 0.113725 0 0 0 0 0.207843 0 0 0 0 0.341176 0 0 0 0.08 0"/>
<feBlend mode="normal" in2="BackgroundImageFix" result="effect1_dropShadow"/>
<feBlend mode="normal" in="SourceGraphic" in2="effect1_dropShadow" result="shape"/>
</filter>
<linearGradient id="paint0_linear" x1="71.6621" y1="106.702" x2="128.828" y2="106.702" gradientUnits="userSpaceOnUse">
<stop offset="0.15" stop-color="#FDD84E"/>
<stop offset="0.23" stop-color="#FDD54D"/>
<stop offset="0.29" stop-color="#FCCC49"/>
<stop offset="0.34" stop-color="#FABC42"/>
<stop offset="0.37" stop-color="#F8AF3C"/>
<stop offset="0.42" stop-color="#F9B845"/>
<stop offset="0.49" stop-color="#F9BB48"/>
<stop offset="0.63" stop-color="#FFEA75"/>
<stop offset="0.69" stop-color="#F9DF6C"/>
<stop offset="0.77" stop-color="#EDC959"/>
<stop offset="0.88" stop-color="#EDA332"/>
<stop offset="0.94" stop-color="#EDB040"/>
<stop offset="0.98" stop-color="#EDB545"/>
</linearGradient>
<linearGradient id="paint1_linear" x1="77.9867" y1="70.4718" x2="127.009" y2="70.4718" gradientUnits="userSpaceOnUse">
<stop offset="0.06" stop-color="#FDD84E"/>
<stop offset="0.19" stop-color="#FDD64D"/>
<stop offset="0.26" stop-color="#FCCE49"/>
<stop offset="0.31" stop-color="#FAC043"/>
<stop offset="0.36" stop-color="#F8AF3C"/>
<stop offset="0.49" stop-color="#F9BB48"/>
<stop offset="0.65" stop-color="#FFEA75"/>
<stop offset="0.7" stop-color="#F9DF6C"/>
<stop offset="0.78" stop-color="#EDC959"/>
<stop offset="0.88" stop-color="#EDA231"/>
<stop offset="0.97" stop-color="#EDB545"/>
</linearGradient>
</defs>
</svg>
