<svg width="369" height="186" viewBox="0 0 369 186" fill="none" xmlns="http://www.w3.org/2000/svg">
<g filter="url(#filter0_d)">
<rect x="16.3438" y="16" width="328.344" height="145.148" fill="white"/>
</g>
<path d="M127.229 44.8742V58.8927L114.781 53.0184V38.5469L127.229 44.8742Z" fill="url(#paint0_linear)"/>
<path d="M114.785 38.5485V53.02L81.873 70.7758V56.8262L114.785 38.5485Z" fill="url(#paint1_linear)"/>
<path d="M127.229 65.9983V80.0168L114.781 74.1426V59.671L127.229 65.9983Z" fill="url(#paint2_linear)"/>
<path d="M114.783 59.671V74.1426L81.8711 91.9033V77.9439L114.783 59.671Z" fill="url(#paint3_linear)"/>
<path d="M143.248 53.0184V108.699L133.193 103.957V47.9073L143.248 53.0184Z" fill="url(#paint4_linear)"/>
<path d="M127.229 87.1268V101.14L114.781 95.2661V80.7946L127.229 87.1268Z" fill="url(#paint5_linear)"/>
<path d="M114.783 80.7946V95.2661L81.8711 113.022V99.0723L114.783 80.7946Z" fill="url(#paint6_linear)"/>
<path d="M174.694 103.79V105.267H151.596V103.79H153.501C155.73 103.79 157.347 103.133 158.351 101.82C159.008 100.973 159.326 98.933 159.307 95.6996V60.8871C159.307 58.1593 159.134 56.3522 158.814 55.4708C158.481 54.7322 157.906 54.1294 157.184 53.7622C156.067 53.1361 154.807 52.8072 153.526 52.8069H151.596V51.3297H174.694V52.8069H172.749C170.55 52.8069 168.946 53.4634 167.938 54.7765C167.282 55.6267 166.954 57.6685 166.954 60.9019V95.734C166.954 98.4619 167.118 100.267 167.446 101.15C167.786 101.897 168.376 102.502 169.115 102.859C170.218 103.486 171.465 103.815 172.734 103.814L174.694 103.79Z" fill="#215572"/>
<path d="M214.02 50.1134V68.7605H212.543C212.067 65.1791 211.212 62.3298 209.977 60.2125C208.726 58.0709 206.901 56.3212 204.709 55.1605C202.547 53.9466 200.112 53.3043 197.633 53.2943C195.111 53.2072 192.656 54.1123 190.794 55.8154C188.991 57.4994 188.09 59.4148 188.09 61.5616C188.093 63.2183 188.701 64.8168 189.799 66.0572C191.44 68.0268 195.35 70.6775 201.528 74.0094C206.567 76.711 210.013 78.784 211.868 80.2284C213.646 81.5968 215.099 83.3424 216.122 85.3395C217.098 87.2476 217.605 89.3611 217.6 91.5043C217.6 95.5846 216.016 99.1036 212.848 102.061C209.68 105.019 205.605 106.496 200.622 106.493C199.137 106.502 197.654 106.382 196.19 106.133C194.464 105.744 192.763 105.254 191.094 104.666C188.51 103.829 186.869 103.41 186.17 103.41C185.881 103.396 185.593 103.441 185.322 103.544C185.052 103.646 184.806 103.804 184.599 104.006C184.215 104.407 183.93 105.227 183.742 106.468H182.265V88.0033H183.742C184.435 91.89 185.369 94.7853 186.544 96.6892C187.855 98.7464 189.704 100.405 191.892 101.485C194.32 102.762 197.027 103.417 199.77 103.391C203.082 103.391 205.698 102.516 207.619 100.766C208.522 100.005 209.249 99.0548 209.747 97.9831C210.246 96.9115 210.504 95.7439 210.504 94.562C210.482 93.1539 210.106 91.7741 209.411 90.549C208.562 89.06 207.401 87.7717 206.009 86.7723C204.975 85.9746 202.151 84.2841 197.539 81.7006C192.927 79.1172 189.645 77.0573 187.691 75.5211C185.884 74.1424 184.376 72.4101 183.26 70.4297C182.253 68.5416 181.741 66.429 181.773 64.2895C181.773 60.4193 183.25 57.0874 186.204 54.2938C189.159 51.5003 192.934 50.1019 197.53 50.0986C200.679 50.1612 203.782 50.8789 206.639 52.2061C208.116 52.8659 209.17 53.1909 209.78 53.1909C210.403 53.2143 211.01 52.9914 211.469 52.5705C211.906 52.1601 212.257 51.3395 212.523 50.1085L214.02 50.1134Z" fill="#215572"/>
<path d="M259.227 87.2106H238.349L234.691 95.7192C233.788 97.8135 233.338 99.3777 233.342 100.412C233.353 100.839 233.466 101.258 233.669 101.635C233.873 102.011 234.162 102.334 234.514 102.578C235.295 103.199 236.985 103.602 239.585 103.79V105.267H222.607V103.79C224.856 103.389 226.314 102.872 226.98 102.239C228.329 100.968 229.826 98.383 231.471 94.4833L250.438 50.1134H251.831L270.596 94.9609C272.11 98.5718 273.482 100.911 274.713 101.978C275.944 103.044 277.661 103.648 279.863 103.79V105.267H258.592V103.79C260.739 103.681 262.186 103.327 262.945 102.716C263.294 102.459 263.578 102.124 263.775 101.738C263.972 101.351 264.075 100.924 264.077 100.491C264.077 99.3219 263.547 97.4787 262.487 94.9609L259.227 87.2106ZM258.114 84.2562L248.965 62.4676L239.585 84.266L258.114 84.2562Z" fill="#215572"/>
<path d="M97.3028 120.812L97.6918 126.582H97.3028C96.7874 124.856 96.0488 123.612 95.087 122.85C94.1031 122.086 92.8858 121.684 91.6402 121.713C90.5032 121.68 89.3855 122.011 88.4495 122.658C87.5135 123.304 86.808 124.232 86.4356 125.307C85.8715 126.797 85.6055 128.383 85.6527 129.975C85.6208 131.343 85.8723 132.702 86.3913 133.968C86.8413 135.045 87.6204 135.952 88.6169 136.558C89.6389 137.167 90.8103 137.479 91.9997 137.459C93.0174 137.48 94.0232 137.238 94.9196 136.755C96.0287 136.019 96.9741 135.062 97.6967 133.944L98.0857 134.195C97.3952 135.53 96.379 136.67 95.1313 137.509C93.9104 138.235 92.5088 138.6 91.0888 138.562C88.2788 138.562 86.1008 137.519 84.5547 135.431C83.3909 133.844 82.7834 131.918 82.8263 129.95C82.8104 128.322 83.2014 126.716 83.9638 125.278C84.6788 123.906 85.7659 122.765 87.1004 121.983C88.4213 121.204 89.9294 120.799 91.463 120.812C92.7269 120.821 93.9706 121.129 95.0919 121.713C95.322 121.854 95.5782 121.948 95.8453 121.988C95.9537 121.99 96.0613 121.969 96.1619 121.929C96.2625 121.888 96.354 121.828 96.4313 121.752C96.6677 121.486 96.8276 121.161 96.8941 120.812H97.3028Z" fill="#215572"/>
<path d="M108.347 120.812C109.424 120.807 110.49 121.028 111.476 121.46C112.463 121.893 113.347 122.528 114.073 123.323C114.874 124.153 115.501 125.135 115.917 126.21C116.333 127.286 116.53 128.434 116.496 129.587C116.529 130.763 116.329 131.935 115.906 133.034C115.483 134.133 114.847 135.137 114.034 135.988C113.276 136.792 112.363 137.434 111.35 137.875C110.336 138.316 109.244 138.546 108.139 138.552C107.034 138.558 105.939 138.34 104.921 137.91C103.903 137.48 102.983 136.848 102.216 136.052C100.628 134.394 99.8332 132.246 99.8332 129.606C99.7908 128.373 100.015 127.146 100.49 126.007C100.965 124.868 101.68 123.845 102.586 123.008C104.143 121.548 106.213 120.759 108.347 120.812ZM108.105 121.723C107.407 121.701 106.712 121.842 106.078 122.136C105.443 122.43 104.886 122.869 104.452 123.417C103.31 124.815 102.738 126.867 102.738 129.572C102.738 132.342 103.331 134.476 104.516 135.973C104.94 136.52 105.488 136.959 106.115 137.254C106.741 137.549 107.428 137.692 108.12 137.672C108.876 137.684 109.624 137.523 110.307 137.2C110.99 136.878 111.59 136.402 112.059 135.81C113.1 134.566 113.62 132.605 113.62 129.926C113.62 127.021 113.047 124.855 111.902 123.427C111.446 122.866 110.865 122.42 110.206 122.124C109.547 121.828 108.827 121.691 108.105 121.723Z" fill="#215572"/>
<path d="M117.146 121.201H121.755L132.13 133.929V124.14C132.13 123.096 132.017 122.446 131.781 122.171C131.587 121.981 131.355 121.836 131.1 121.746C130.845 121.656 130.573 121.623 130.303 121.649H129.712V121.186H135.621V121.649H135.05C134.761 121.62 134.47 121.664 134.203 121.778C133.937 121.891 133.703 122.071 133.524 122.299C133.341 122.564 133.248 123.175 133.248 124.125V138.434H132.795L121.608 124.766V135.219C121.608 136.263 121.716 136.913 121.942 137.189C122.137 137.377 122.369 137.522 122.624 137.612C122.879 137.703 123.15 137.739 123.42 137.716H124.02V138.178H118.112V137.716H118.698C118.988 137.746 119.282 137.702 119.551 137.588C119.821 137.475 120.057 137.295 120.239 137.066C120.421 136.8 120.514 136.189 120.514 135.239V123.421C120.182 123.003 119.805 122.622 119.392 122.284C119.046 122.064 118.669 121.898 118.274 121.791C117.914 121.701 117.542 121.663 117.171 121.678L117.146 121.201Z" fill="#215572"/>
<path d="M147.753 120.811V126.681H147.29C147.2 125.74 146.925 124.827 146.483 123.992C146.089 123.317 145.514 122.766 144.823 122.402C144.144 122.018 143.378 121.814 142.598 121.811C141.802 121.783 141.027 122.07 140.441 122.609C140.179 122.832 139.968 123.109 139.822 123.42C139.676 123.732 139.598 124.071 139.594 124.416C139.594 124.936 139.785 125.439 140.131 125.829C140.649 126.456 141.88 127.291 143.824 128.335C144.955 128.909 146.041 129.568 147.073 130.305C147.631 130.736 148.089 131.284 148.413 131.91C148.728 132.509 148.896 133.173 148.905 133.85C148.911 134.477 148.782 135.099 148.527 135.672C148.272 136.245 147.897 136.757 147.428 137.174C146.377 138.126 144.994 138.628 143.577 138.572C143.112 138.573 142.648 138.536 142.189 138.459C141.645 138.34 141.109 138.187 140.584 138.001C140.084 137.814 139.566 137.682 139.037 137.607C138.947 137.603 138.857 137.618 138.772 137.65C138.687 137.682 138.61 137.731 138.545 137.794C138.386 138.024 138.292 138.293 138.274 138.572H137.811V132.732H138.274C138.405 133.687 138.702 134.612 139.151 135.465C139.566 136.111 140.147 136.634 140.835 136.977C141.594 137.375 142.439 137.581 143.297 137.577C144.193 137.624 145.073 137.329 145.759 136.75C146.045 136.508 146.274 136.207 146.431 135.866C146.587 135.526 146.667 135.155 146.665 134.781C146.658 134.337 146.541 133.902 146.325 133.515C146.055 133.048 145.689 132.643 145.252 132.328C144.392 131.751 143.503 131.218 142.588 130.733C141.509 130.15 140.472 129.492 139.486 128.763C138.916 128.331 138.442 127.787 138.092 127.163C137.768 126.572 137.599 125.908 137.6 125.233C137.596 124.639 137.72 124.051 137.962 123.508C138.204 122.966 138.559 122.481 139.003 122.087C139.972 121.193 141.255 120.718 142.573 120.767C143.564 120.787 144.54 121.014 145.439 121.432C145.746 121.592 146.08 121.697 146.423 121.742C146.619 121.75 146.81 121.681 146.955 121.55C147.134 121.324 147.248 121.053 147.285 120.767L147.753 120.811Z" fill="#215572"/>
<path d="M165.087 121.201L165.274 125.179H164.782C164.735 124.67 164.608 124.172 164.408 123.702C164.178 123.25 163.818 122.878 163.374 122.634C162.844 122.381 162.261 122.263 161.675 122.289H159.287V135.259C159.287 136.302 159.4 136.952 159.622 137.228C159.816 137.417 160.048 137.561 160.303 137.652C160.558 137.743 160.829 137.778 161.099 137.755H161.685V138.218H154.506V137.755H155.106C155.395 137.783 155.686 137.739 155.953 137.625C156.219 137.512 156.453 137.333 156.633 137.105C156.815 136.839 156.909 136.229 156.909 135.278V122.264H154.865C154.297 122.239 153.728 122.297 153.176 122.437C152.717 122.616 152.328 122.937 152.063 123.352C151.722 123.902 151.532 124.532 151.512 125.179H151.02L151.221 121.201H165.087Z" fill="#215572"/>
<path d="M183.246 138.174H178.711L172.965 130.236C172.541 130.236 172.196 130.236 171.926 130.236H171.576H171.187V135.16C171.187 136.229 171.305 136.893 171.542 137.13C171.723 137.322 171.945 137.471 172.191 137.566C172.437 137.662 172.701 137.701 172.965 137.681H173.629V138.144H166.357V137.681H166.997C167.292 137.709 167.589 137.659 167.858 137.537C168.128 137.414 168.36 137.223 168.533 136.982C168.71 136.721 168.799 136.11 168.799 135.14V124.204C168.799 123.136 168.681 122.471 168.449 122.235C168.26 122.039 168.028 121.888 167.773 121.792C167.517 121.697 167.244 121.66 166.972 121.683H166.332V121.22H172.517C173.858 121.168 175.2 121.3 176.505 121.614C177.361 121.879 178.119 122.393 178.681 123.091C179.277 123.794 179.596 124.691 179.577 125.612C179.593 126.615 179.229 127.586 178.558 128.331C177.703 129.193 176.596 129.762 175.397 129.955L178.903 134.825C179.455 135.684 180.153 136.439 180.966 137.056C181.655 137.458 182.426 137.697 183.221 137.755L183.246 138.174ZM171.187 129.448H171.601H171.891C173.511 129.448 174.732 129.094 175.55 128.395C175.945 128.071 176.262 127.662 176.477 127.198C176.691 126.734 176.796 126.227 176.786 125.716C176.806 125.241 176.729 124.766 176.56 124.322C176.39 123.877 176.132 123.472 175.801 123.131C175.452 122.796 175.038 122.536 174.585 122.367C174.132 122.198 173.649 122.122 173.166 122.146C172.504 122.166 171.845 122.245 171.197 122.382L171.187 129.448Z" fill="#215572"/>
<path d="M195.249 121.664V121.201H201.257V121.664H200.621C200.313 121.652 200.007 121.724 199.736 121.871C199.465 122.018 199.238 122.236 199.08 122.501C198.847 123.071 198.756 123.69 198.814 124.303V131.196C198.867 132.536 198.701 133.875 198.322 135.16C197.934 136.159 197.235 137.007 196.328 137.578C195.11 138.301 193.704 138.644 192.29 138.563C190.439 138.563 189.034 138.243 188.075 137.603C187.132 136.98 186.416 136.07 186.032 135.008C185.766 134.269 185.633 132.876 185.633 130.827V124.204C185.633 123.161 185.49 122.476 185.2 122.151C185.016 121.974 184.797 121.838 184.557 121.753C184.316 121.668 184.06 121.636 183.806 121.659H183.166V121.196H190.503V121.659H189.853C189.571 121.636 189.288 121.684 189.03 121.8C188.772 121.915 188.547 122.093 188.376 122.319C188.164 122.619 188.06 123.249 188.06 124.2V131.585C188.067 132.344 188.128 133.101 188.243 133.851C188.312 134.555 188.536 135.236 188.898 135.845C189.25 136.346 189.722 136.751 190.271 137.022C190.956 137.348 191.709 137.507 192.467 137.484C193.498 137.498 194.516 137.247 195.422 136.756C196.215 136.36 196.849 135.705 197.219 134.899C197.539 134.141 197.711 132.866 197.711 131.064V124.17C197.711 123.111 197.593 122.447 197.357 122.2C197.171 122.008 196.945 121.859 196.694 121.764C196.444 121.668 196.176 121.629 195.909 121.649L195.249 121.664Z" fill="#215572"/>
<path d="M216.97 120.812L217.359 126.582H216.97C216.451 124.856 215.713 123.612 214.754 122.85C213.77 122.086 212.553 121.684 211.307 121.713C210.171 121.681 209.055 122.013 208.12 122.659C207.185 123.306 206.48 124.233 206.108 125.307C205.544 126.797 205.278 128.383 205.325 129.975C205.293 131.343 205.544 132.703 206.063 133.968C206.512 135.045 207.289 135.951 208.284 136.558C209.308 137.168 210.481 137.48 211.672 137.46C212.688 137.479 213.692 137.237 214.587 136.755C215.434 136.263 216.359 135.342 217.369 133.944L217.758 134.195C217.06 135.535 216.033 136.675 214.774 137.509C213.553 138.236 212.151 138.601 210.731 138.562C207.921 138.562 205.743 137.519 204.197 135.431C203.034 133.844 202.426 131.918 202.469 129.95C202.452 128.322 202.845 126.715 203.611 125.278C204.325 123.906 205.412 122.764 206.748 121.984C208.068 121.203 209.577 120.798 211.11 120.812C212.374 120.821 213.618 121.13 214.739 121.713C214.968 121.854 215.222 121.948 215.488 121.988C215.708 121.991 215.921 121.906 216.079 121.752C216.315 121.486 216.475 121.161 216.542 120.812H216.97Z" fill="#215572"/>
<path d="M233.47 121.201L233.657 125.179H233.165C233.12 124.67 232.994 124.171 232.791 123.702C232.563 123.249 232.202 122.876 231.757 122.634C231.229 122.382 230.647 122.263 230.063 122.289H227.67V135.259C227.67 136.302 227.783 136.959 228.01 137.228C228.203 137.417 228.435 137.562 228.69 137.653C228.945 137.744 229.217 137.779 229.487 137.755H230.083V138.218H222.879V137.755H223.479C223.768 137.784 224.059 137.739 224.326 137.626C224.593 137.512 224.827 137.333 225.006 137.105C225.188 136.839 225.282 136.229 225.282 135.278V122.264H223.243C222.673 122.239 222.103 122.297 221.549 122.437C221.091 122.617 220.702 122.938 220.436 123.352C220.095 123.902 219.905 124.532 219.885 125.179H219.393L219.59 121.201H233.47Z" fill="#215572"/>
<path d="M242.204 137.711V138.174H234.932V137.711H235.532C235.817 137.738 236.105 137.696 236.37 137.589C236.636 137.481 236.872 137.312 237.059 137.095C237.261 136.829 237.359 136.189 237.359 135.17V124.204C237.392 123.631 237.337 123.057 237.197 122.501C237.098 122.271 236.924 122.082 236.704 121.964C236.353 121.766 235.956 121.663 235.552 121.664H234.951V121.201H242.224V121.664H241.613C241.33 121.639 241.046 121.681 240.782 121.787C240.518 121.893 240.284 122.06 240.097 122.274C239.89 122.545 239.787 123.185 239.787 124.204V135.195C239.754 135.767 239.809 136.342 239.949 136.898C240.056 137.132 240.24 137.322 240.471 137.435C240.819 137.633 241.213 137.737 241.613 137.735L242.204 137.711Z" fill="#215572"/>
<path d="M252.21 120.812C253.287 120.807 254.353 121.028 255.34 121.46C256.326 121.893 257.211 122.528 257.937 123.323C258.737 124.153 259.364 125.135 259.78 126.21C260.196 127.286 260.393 128.434 260.359 129.587C260.391 130.763 260.19 131.935 259.768 133.033C259.345 134.132 258.71 135.136 257.897 135.988C257.139 136.792 256.226 137.434 255.213 137.875C254.2 138.316 253.107 138.546 252.002 138.552C250.897 138.558 249.802 138.34 248.784 137.91C247.766 137.48 246.846 136.848 246.08 136.052C244.488 134.394 243.693 132.246 243.696 129.606C243.654 128.373 243.878 127.146 244.353 126.007C244.828 124.868 245.543 123.845 246.449 123.008C248.006 121.548 250.076 120.759 252.21 120.812ZM251.969 121.723C251.27 121.7 250.575 121.842 249.941 122.136C249.306 122.43 248.749 122.869 248.315 123.417C247.173 124.815 246.602 126.867 246.602 129.572C246.602 132.342 247.194 134.476 248.379 135.973C248.804 136.52 249.351 136.959 249.978 137.255C250.604 137.55 251.291 137.693 251.984 137.672C252.739 137.684 253.487 137.523 254.17 137.2C254.853 136.878 255.453 136.402 255.923 135.81C256.963 134.566 257.484 132.605 257.484 129.926C257.484 127.021 256.911 124.855 255.765 123.427C255.309 122.866 254.728 122.42 254.069 122.124C253.41 121.828 252.691 121.691 251.969 121.723Z" fill="#215572"/>
<path d="M261.011 121.201H265.62L275.994 133.929V124.14C275.994 123.096 275.876 122.446 275.645 122.171C275.452 121.981 275.219 121.836 274.964 121.746C274.709 121.656 274.437 121.623 274.168 121.649H273.577V121.186H279.486V121.649H278.885C278.596 121.62 278.305 121.664 278.038 121.778C277.771 121.891 277.538 122.071 277.358 122.299C277.176 122.564 277.083 123.175 277.083 124.125V138.434H276.63L265.437 124.766V135.219C265.437 136.263 265.551 136.919 265.777 137.189C265.971 137.377 266.204 137.522 266.459 137.612C266.713 137.703 266.985 137.739 267.254 137.716H267.855V138.178H261.946V137.716H262.532C262.823 137.746 263.117 137.702 263.386 137.588C263.656 137.475 263.892 137.295 264.073 137.066C264.256 136.8 264.349 136.189 264.349 135.239V123.421C264.016 123.003 263.64 122.622 263.227 122.284C262.881 122.064 262.504 121.898 262.109 121.791C261.749 121.701 261.377 121.663 261.006 121.678L261.011 121.201Z" fill="#215572"/>
<defs>
<filter id="filter0_d" x="0.34375" y="0" width="368.344" height="185.148" filterUnits="userSpaceOnUse" color-interpolation-filters="sRGB">
<feFlood flood-opacity="0" result="BackgroundImageFix"/>
<feColorMatrix in="SourceAlpha" type="matrix" values="0 0 0 0 0 0 0 0 0 0 0 0 0 0 0 0 0 0 127 0" result="hardAlpha"/>
<feOffset dx="4" dy="4"/>
<feGaussianBlur stdDeviation="10"/>
<feComposite in2="hardAlpha" operator="out"/>
<feColorMatrix type="matrix" values="0 0 0 0 0.113725 0 0 0 0 0.207843 0 0 0 0 0.341176 0 0 0 0.08 0"/>
<feBlend mode="normal" in2="BackgroundImageFix" result="effect1_dropShadow"/>
<feBlend mode="normal" in="SourceGraphic" in2="effect1_dropShadow" result="shape"/>
</filter>
<linearGradient id="paint0_linear" x1="121.005" y1="38.5469" x2="121.005" y2="58.8927" gradientUnits="userSpaceOnUse">
<stop stop-color="#148AAE"/>
<stop offset="1" stop-color="#174F78"/>
</linearGradient>
<linearGradient id="paint1_linear" x1="98.3289" y1="38.5485" x2="98.3289" y2="70.7758" gradientUnits="userSpaceOnUse">
<stop stop-color="#148AAE"/>
<stop offset="1" stop-color="#174F78"/>
</linearGradient>
<linearGradient id="paint2_linear" x1="121.005" y1="59.671" x2="121.005" y2="80.0168" gradientUnits="userSpaceOnUse">
<stop stop-color="#148AAE"/>
<stop offset="1" stop-color="#174F78"/>
</linearGradient>
<linearGradient id="paint3_linear" x1="98.327" y1="59.671" x2="98.327" y2="91.9033" gradientUnits="userSpaceOnUse">
<stop stop-color="#148AAE"/>
<stop offset="1" stop-color="#174F78"/>
</linearGradient>
<linearGradient id="paint4_linear" x1="127.585" y1="86.915" x2="154.677" y2="64.9787" gradientUnits="userSpaceOnUse">
<stop stop-color="#A52F3F"/>
<stop offset="1" stop-color="#E6115C"/>
</linearGradient>
<linearGradient id="paint5_linear" x1="121.005" y1="80.7946" x2="121.005" y2="101.14" gradientUnits="userSpaceOnUse">
<stop stop-color="#148AAE"/>
<stop offset="1" stop-color="#174F78"/>
</linearGradient>
<linearGradient id="paint6_linear" x1="98.327" y1="80.7946" x2="98.327" y2="113.022" gradientUnits="userSpaceOnUse">
<stop stop-color="#148AAE"/>
<stop offset="1" stop-color="#174F78"/>
</linearGradient>
</defs>
</svg>
