<svg width="369" height="186" viewBox="0 0 369 186" fill="none" xmlns="http://www.w3.org/2000/svg">
<g filter="url(#filter0_d)">
<rect x="16" y="16.1478" width="328.344" height="145.148" fill="white"/>
</g>
<path d="M81.5273 88.649L138.674 57.0211L138.661 88.662" fill="url(#paint0_linear)"/>
<path d="M81.5273 88.6492L138.654 120.297L138.661 88.6622" fill="url(#paint1_linear)"/>
<path d="M121.486 88.6555L138.661 57.0146V88.6555" fill="url(#paint2_linear)"/>
<path d="M121.486 88.6555L138.661 120.29V88.6555" fill="url(#paint3_linear)"/>
<path d="M161.795 57.0157H149.947V101.025H161.795V57.0157Z" fill="#1D3557"/>
<path d="M257.111 60.2648C255.893 58.0959 254.134 57.0148 251.828 57.0148H250.604H249.125H184.463C182.431 57.0148 180.549 57.3339 178.81 57.9657C177.071 58.5975 175.579 59.5028 174.342 60.6752C173.098 61.8475 172.127 63.2609 171.43 64.9087C170.727 66.5565 170.382 68.3737 170.382 70.3602C170.382 72.3467 170.733 74.1509 171.43 75.7791C172.127 77.4009 173.098 78.7947 174.342 79.9411C175.586 81.0939 177.071 81.9927 178.81 82.6505C180.549 83.3083 182.431 83.634 184.463 83.634H203.827C204.686 83.634 205.383 83.9076 205.924 84.4481C206.464 84.9887 206.738 85.7377 206.738 86.6821C206.738 87.6331 206.464 88.3625 205.924 88.8836C205.383 89.4046 204.68 89.6652 203.827 89.6652H164.09V101.044H204.367C206.445 101.044 208.34 100.731 210.053 100.093C211.766 99.461 213.258 98.5491 214.521 97.3507C215.785 96.1523 216.768 94.7324 217.465 93.0846C218.162 91.4368 218.514 89.6 218.514 87.5679C218.514 85.627 218.162 83.8359 217.465 82.1881C216.768 80.5403 215.785 79.1334 214.521 77.9546C213.258 76.7822 211.766 75.8703 210.053 75.2125C208.34 74.5612 206.438 74.229 204.367 74.229H185.004C184.144 74.229 183.453 73.9555 182.939 73.4149C182.418 72.8743 182.157 72.1513 182.157 71.246C182.157 70.2951 182.418 69.5786 182.939 69.0771C183.46 68.5821 184.144 68.3346 185.004 68.3346H239.401L221.366 101.037H234.432L250.545 70.7054L258.062 84.8585H247.432L242.423 94.27H263.077L266.731 101.044H279.594L257.111 60.2648Z" fill="#1D3557"/>
<path d="M155.646 120.323C154.819 120.323 154.057 120.193 153.36 119.932C152.663 119.672 152.064 119.307 151.563 118.838C151.061 118.369 150.664 117.803 150.377 117.138C150.091 116.474 149.947 115.738 149.947 114.937C149.947 114.129 150.091 113.4 150.377 112.742C150.664 112.084 151.061 111.517 151.563 111.042C152.064 110.566 152.663 110.202 153.36 109.941C154.057 109.681 154.819 109.55 155.646 109.55H161.41V112.319H155.444C155.067 112.319 154.721 112.384 154.402 112.507C154.083 112.638 153.803 112.813 153.575 113.048C153.341 113.282 153.158 113.556 153.028 113.875C152.898 114.194 152.833 114.546 152.833 114.937C152.833 115.328 152.898 115.679 153.028 115.998C153.158 116.318 153.341 116.591 153.575 116.819C153.81 117.047 154.083 117.223 154.402 117.347C154.721 117.477 155.073 117.536 155.444 117.536H158.662V116.064H155.164V113.758H161.41V120.317H155.646V120.323Z" fill="#1D3557"/>
<path d="M187.56 120.323L185.404 117.588H182.851V115.067H186.564C186.961 115.067 187.287 114.943 187.541 114.696C187.795 114.448 187.925 114.116 187.925 113.693C187.925 113.276 187.795 112.937 187.541 112.69C187.287 112.442 186.961 112.319 186.564 112.319H182.024V120.323H179.139V109.55H186.564C187.182 109.55 187.749 109.648 188.27 109.844C188.791 110.039 189.241 110.312 189.618 110.664C190.003 111.016 190.296 111.446 190.504 111.941C190.713 112.436 190.817 112.983 190.817 113.582C190.817 114.409 190.615 115.132 190.218 115.751C189.82 116.37 189.286 116.839 188.609 117.158L191.325 120.323H187.56Z" fill="#1D3557"/>
<path d="M213.51 120.323C212.682 120.323 211.92 120.193 211.223 119.932C210.527 119.672 209.927 119.307 209.426 118.838C208.924 118.369 208.527 117.803 208.24 117.138C207.954 116.474 207.811 115.738 207.811 114.937C207.811 114.129 207.954 113.4 208.24 112.742C208.527 112.084 208.924 111.517 209.426 111.042C209.927 110.566 210.527 110.202 211.223 109.941C211.92 109.681 212.682 109.55 213.51 109.55H215.066C215.887 109.55 216.642 109.681 217.339 109.941C218.036 110.202 218.635 110.566 219.137 111.042C219.638 111.517 220.036 112.084 220.322 112.742C220.609 113.4 220.752 114.129 220.752 114.937C220.752 115.744 220.609 116.48 220.322 117.138C220.036 117.803 219.638 118.369 219.137 118.838C218.635 119.307 218.036 119.672 217.339 119.932C216.642 120.193 215.887 120.323 215.066 120.323H213.51ZM215.268 117.542C215.646 117.542 215.991 117.477 216.31 117.353C216.629 117.223 216.909 117.047 217.137 116.826C217.372 116.598 217.548 116.324 217.678 116.005C217.808 115.686 217.867 115.334 217.867 114.943C217.867 114.553 217.802 114.201 217.678 113.882C217.554 113.563 217.372 113.282 217.137 113.054C216.903 112.82 216.629 112.644 216.31 112.514C215.991 112.39 215.639 112.325 215.268 112.325H213.314C212.936 112.325 212.591 112.39 212.272 112.514C211.953 112.644 211.673 112.82 211.445 113.054C211.21 113.289 211.028 113.563 210.898 113.882C210.768 114.201 210.702 114.553 210.702 114.943C210.702 115.334 210.768 115.686 210.891 116.005C211.015 116.324 211.197 116.598 211.432 116.826C211.666 117.054 211.94 117.229 212.259 117.353C212.578 117.483 212.93 117.542 213.321 117.542H215.268Z" fill="#1D3557"/>
<path d="M242.955 120.323C242.239 120.323 241.581 120.212 240.982 119.984C240.382 119.756 239.868 119.443 239.425 119.033C238.982 118.623 238.637 118.134 238.396 117.567C238.155 117.001 238.031 116.369 238.031 115.685V109.556H240.949V115.47C240.949 116.102 241.145 116.604 241.529 116.981C241.913 117.359 242.408 117.548 243.001 117.548H245.287C245.886 117.548 246.375 117.359 246.759 116.981C247.143 116.604 247.339 116.102 247.339 115.47V109.556H250.256V115.685C250.256 116.369 250.133 116.994 249.892 117.567C249.651 118.134 249.306 118.623 248.863 119.033C248.42 119.443 247.899 119.762 247.299 119.984C246.7 120.212 246.042 120.323 245.332 120.323H242.955Z" fill="#1D3557"/>
<path d="M271.607 117.653V115.087H275.105C275.489 115.087 275.815 114.956 276.075 114.702C276.336 114.448 276.466 114.116 276.466 113.706C276.466 113.289 276.336 112.95 276.075 112.696C275.815 112.442 275.489 112.312 275.105 112.312H270.78V120.317H267.895V109.55H275.052C275.684 109.55 276.257 109.648 276.785 109.85C277.306 110.052 277.762 110.326 278.146 110.677C278.53 111.029 278.824 111.459 279.032 111.954C279.24 112.449 279.345 113.002 279.345 113.608C279.345 114.207 279.24 114.754 279.032 115.249C278.824 115.744 278.524 116.174 278.146 116.533C277.762 116.891 277.313 117.171 276.785 117.36C276.257 117.555 275.684 117.646 275.052 117.646H271.607V117.653Z" fill="#1D3557"/>
<defs>
<filter id="filter0_d" x="0" y="0.147827" width="368.344" height="185.148" filterUnits="userSpaceOnUse" color-interpolation-filters="sRGB">
<feFlood flood-opacity="0" result="BackgroundImageFix"/>
<feColorMatrix in="SourceAlpha" type="matrix" values="0 0 0 0 0 0 0 0 0 0 0 0 0 0 0 0 0 0 127 0" result="hardAlpha"/>
<feOffset dx="4" dy="4"/>
<feGaussianBlur stdDeviation="10"/>
<feComposite in2="hardAlpha" operator="out"/>
<feColorMatrix type="matrix" values="0 0 0 0 0.113725 0 0 0 0 0.207843 0 0 0 0 0.341176 0 0 0 0.08 0"/>
<feBlend mode="normal" in2="BackgroundImageFix" result="effect1_dropShadow"/>
<feBlend mode="normal" in="SourceGraphic" in2="effect1_dropShadow" result="shape"/>
</filter>
<linearGradient id="paint0_linear" x1="110.095" y1="88.6544" x2="110.103" y2="57.0168" gradientUnits="userSpaceOnUse">
<stop stop-color="#31B46C"/>
<stop offset="0.3384" stop-color="#74D957"/>
<stop offset="0.5865" stop-color="#A0F249"/>
<stop offset="1" stop-color="#A3F348"/>
</linearGradient>
<linearGradient id="paint1_linear" x1="110.087" y1="120.292" x2="110.095" y2="88.6546" gradientUnits="userSpaceOnUse">
<stop stop-color="#31B46C"/>
<stop offset="0.3384" stop-color="#74D957"/>
<stop offset="0.5865" stop-color="#A0F249"/>
<stop offset="1" stop-color="#A3F348"/>
</linearGradient>
<linearGradient id="paint2_linear" x1="130.075" y1="88.6545" x2="130.075" y2="57.0169" gradientUnits="userSpaceOnUse">
<stop stop-color="#A3F348"/>
<stop offset="0.4135" stop-color="#A0F249"/>
<stop offset="0.6616" stop-color="#74D957"/>
<stop offset="1" stop-color="#31B46C"/>
</linearGradient>
<linearGradient id="paint3_linear" x1="130.075" y1="120.292" x2="130.075" y2="88.6545" gradientUnits="userSpaceOnUse">
<stop stop-color="#A3F348"/>
<stop offset="0.4135" stop-color="#A0F249"/>
<stop offset="0.6616" stop-color="#74D957"/>
<stop offset="1" stop-color="#31B46C"/>
</linearGradient>
</defs>
</svg>
