<svg width="369" height="186" viewBox="0 0 369 186" fill="none" xmlns="http://www.w3.org/2000/svg">
<g filter="url(#filter0_d)">
<rect x="16" y="16.0002" width="328.344" height="145.148" fill="white"/>
</g>
<path d="M81.5273 88.3828L128.273 62.5081L128.268 88.3934" fill="url(#paint0_linear)"/>
<path d="M81.5273 88.3838L128.263 114.274L128.268 88.3945" fill="url(#paint1_linear)"/>
<path d="M114.217 88.3889L128.268 62.5035V88.3889" fill="url(#paint2_linear)"/>
<path d="M114.217 88.3888L128.268 114.269V88.3888" fill="url(#paint3_linear)"/>
<path d="M135.994 106.265V70.2881H145.681V106.265H135.994Z" fill="#1D3557"/>
<path d="M164.619 70.2884C163.044 70.2729 161.478 70.5344 159.994 71.061C158.638 71.5388 157.395 72.2917 156.344 73.2723C155.317 74.2465 154.506 75.4243 153.962 76.7304C153.378 78.1421 153.086 79.6574 153.104 81.1849C153.084 82.704 153.376 84.2111 153.962 85.6128C154.508 86.9022 155.32 88.0622 156.344 89.0177C157.403 89.9876 158.643 90.739 159.994 91.229C161.473 91.7765 163.041 92.0492 164.619 92.0336H180.449C180.766 92.0222 181.081 92.0753 181.376 92.1899C181.671 92.3044 181.939 92.4778 182.165 92.6996C182.393 92.9428 182.569 93.2297 182.682 93.543C182.796 93.8562 182.845 94.1893 182.826 94.5219C182.856 94.8442 182.816 95.1691 182.708 95.4743C182.6 95.7794 182.427 96.0574 182.201 96.289C181.975 96.5207 181.701 96.7004 181.398 96.8157C181.096 96.931 180.772 96.9793 180.449 96.957L148.404 96.7172V106.308L180.908 106.266C182.49 106.284 184.064 106.021 185.554 105.488C186.913 104.998 188.157 104.235 189.209 103.245C190.246 102.263 191.066 101.076 191.618 99.7597C192.204 98.3303 192.496 96.797 192.475 95.2519C192.489 93.742 192.198 92.2448 191.618 90.8506C191.069 89.54 190.248 88.3612 189.209 87.3925C188.148 86.415 186.906 85.6531 185.554 85.1493C184.067 84.5997 182.492 84.3271 180.908 84.3447H165.061C164.749 84.3589 164.437 84.3074 164.146 84.1936C163.855 84.0797 163.591 83.9061 163.372 83.6839C163.154 83.4445 162.987 83.1645 162.878 82.86C162.769 82.5555 162.721 82.2325 162.738 81.9096C162.7 81.593 162.733 81.2718 162.835 80.9698C162.938 80.6677 163.107 80.3925 163.33 80.1645C163.553 79.9364 163.824 79.7613 164.123 79.652C164.423 79.5428 164.743 79.5021 165.061 79.5331H195.758C195.907 79.2188 196.067 78.9204 196.227 78.6273C197.17 76.8718 198.39 75.2796 199.839 73.9117C201.459 72.3901 203.333 71.1639 205.376 70.2884H164.619Z" fill="#1D3557"/>
<path d="M278.082 80.94C277.161 78.8006 275.814 76.8715 274.123 75.2706C272.391 73.6495 270.348 72.3969 268.118 71.5887C265.689 70.7026 263.12 70.2621 260.535 70.2886H255.335C252.73 70.2595 250.142 70.6999 247.694 71.5887C245.464 72.3984 243.422 73.6508 241.689 75.2706C239.999 76.8717 238.653 78.8009 237.735 80.94C235.81 85.6494 235.81 90.9264 237.735 95.6358C237.932 96.094 238.145 96.5363 238.38 96.9625C239.23 98.5881 240.348 100.058 241.689 101.311C243.427 102.915 245.469 104.156 247.694 104.96C250.142 105.851 252.73 106.293 255.335 106.266H260.535C263.121 106.291 265.689 105.848 268.118 104.96C270.343 104.157 272.385 102.916 274.123 101.311C275.821 99.7194 277.169 97.7923 278.082 95.6518C280 90.9409 280 85.6669 278.082 80.956V80.94ZM269.252 91.8153C268.854 92.8463 268.242 93.7815 267.457 94.5594C266.661 95.3289 265.719 95.9305 264.686 96.3285C263.576 96.7603 262.393 96.9755 261.201 96.9625H254.669C253.458 96.9788 252.255 96.7636 251.125 96.3285C250.093 95.9317 249.153 95.3299 248.36 94.5594C247.571 93.7831 246.957 92.8476 246.559 91.8153C246.126 90.6864 245.911 89.486 245.925 88.2772C245.908 87.0635 246.134 85.8586 246.591 84.7339C247.008 83.7001 247.628 82.7599 248.413 81.9684C249.203 81.1839 250.146 80.5708 251.184 80.1674C252.294 79.7351 253.477 79.5199 254.669 79.5333H261.201C262.393 79.5204 263.576 79.7356 264.686 80.1674C265.724 80.5664 266.668 81.1791 267.454 81.9657C268.241 82.7524 268.853 83.6954 269.252 84.7339C270.105 87.0174 270.105 89.5318 269.252 91.8153Z" fill="#1D3557"/>
<path d="M240.234 102.866C241.736 104.261 243.45 105.409 245.312 106.266H214.764C212.159 106.293 209.571 105.851 207.123 104.96C204.898 104.156 202.857 102.915 201.118 101.31C199.422 99.7187 198.075 97.7916 197.164 95.6514C196.178 93.3252 195.686 90.8193 195.72 88.2929V88.1917C195.686 85.6652 196.178 83.1594 197.164 80.8331C198.073 78.6872 199.42 76.7545 201.118 75.1584C202.857 73.5539 204.898 72.313 207.123 71.5084C209.571 70.6178 212.159 70.1756 214.764 70.203H245.312C243.45 71.0599 241.736 72.2074 240.234 73.6025C238.724 75.0178 237.464 76.6768 236.504 78.51C236.339 78.8137 236.168 79.1494 236.003 79.5064H214.098C212.907 79.4929 211.724 79.7081 210.613 80.1405C209.58 80.5384 208.638 81.14 207.843 81.9095C207.054 82.6904 206.434 83.6242 206.02 84.6536C205.564 85.7765 205.337 86.9796 205.354 88.1917V88.2556C205.337 89.4676 205.564 90.6708 206.02 91.7937C206.434 92.8231 207.054 93.7569 207.843 94.5378C208.638 95.3073 209.58 95.9089 210.613 96.3068C211.724 96.7391 212.907 96.9544 214.098 96.9409H235.992C236.158 97.2979 236.328 97.6336 236.493 97.9373C237.454 99.7789 238.719 101.445 240.234 102.866Z" fill="#1D3557"/>
<defs>
<filter id="filter0_d" x="0" y="0.000244141" width="368.344" height="185.148" filterUnits="userSpaceOnUse" color-interpolation-filters="sRGB">
<feFlood flood-opacity="0" result="BackgroundImageFix"/>
<feColorMatrix in="SourceAlpha" type="matrix" values="0 0 0 0 0 0 0 0 0 0 0 0 0 0 0 0 0 0 127 0" result="hardAlpha"/>
<feOffset dx="4" dy="4"/>
<feGaussianBlur stdDeviation="10"/>
<feComposite in2="hardAlpha" operator="out"/>
<feColorMatrix type="matrix" values="0 0 0 0 0.113725 0 0 0 0 0.207843 0 0 0 0 0.341176 0 0 0 0.08 0"/>
<feBlend mode="normal" in2="BackgroundImageFix" result="effect1_dropShadow"/>
<feBlend mode="normal" in="SourceGraphic" in2="effect1_dropShadow" result="shape"/>
</filter>
<linearGradient id="paint0_linear" x1="104.97" y1="88.4188" x2="104.975" y2="62.5387" gradientUnits="userSpaceOnUse">
<stop stop-color="#31B46C"/>
<stop offset="0.34" stop-color="#74D957"/>
<stop offset="0.59" stop-color="#A0F249"/>
<stop offset="1" stop-color="#A3F348"/>
</linearGradient>
<linearGradient id="paint1_linear" x1="-86306.1" y1="-22524.3" x2="-84035.4" y2="-22524.3" gradientUnits="userSpaceOnUse">
<stop stop-color="#31B46C"/>
<stop offset="0.34" stop-color="#74D957"/>
<stop offset="0.59" stop-color="#A0F249"/>
<stop offset="1" stop-color="#A3F348"/>
</linearGradient>
<linearGradient id="paint2_linear" x1="121.24" y1="88.3836" x2="121.24" y2="62.5035" gradientUnits="userSpaceOnUse">
<stop stop-color="#A3F348"/>
<stop offset="0.41" stop-color="#A0F249"/>
<stop offset="0.66" stop-color="#74D957"/>
<stop offset="1" stop-color="#31B46C"/>
</linearGradient>
<linearGradient id="paint3_linear" x1="-25851.2" y1="-21732.4" x2="-25168.6" y2="-21732.4" gradientUnits="userSpaceOnUse">
<stop stop-color="#A3F348"/>
<stop offset="0.41" stop-color="#A0F249"/>
<stop offset="0.66" stop-color="#74D957"/>
<stop offset="1" stop-color="#31B46C"/>
</linearGradient>
</defs>
</svg>
