<svg width="411" height="76" viewBox="0 0 411 76" fill="none" xmlns="http://www.w3.org/2000/svg">
<path d="M84.5602 54.8311V55.8081H69.2227V54.8311H70.4899C71.9682 54.8311 73.0417 54.3999 73.7103 53.5377C74.133 52.9746 74.3442 51.6195 74.344 49.4724V26.3476C74.4132 25.1404 74.2975 23.9298 74.0009 22.7576C73.7787 22.2679 73.3971 21.8679 72.9185 21.6227C72.176 21.2084 71.3402 20.9903 70.4899 20.9888H69.2227V20.0124H84.5602V20.9888H83.2665C82.6698 20.9366 82.0692 21.0266 81.514 21.2515C80.9588 21.4763 80.4648 21.8295 80.0725 22.2822C79.6322 22.8458 79.4122 24.201 79.4125 26.3475V49.4723C79.3431 50.6796 79.4588 51.8905 79.7556 53.0628C79.9833 53.5576 80.375 53.9586 80.8643 54.1977C81.5965 54.6137 82.4244 54.832 83.2665 54.831L84.5602 54.8311Z" fill="#F8F8F9"/>
<path d="M110.667 19.1937V31.5744H109.691C109.495 29.5902 108.917 27.6628 107.988 25.8987C107.156 24.4779 105.945 23.317 104.49 22.5462C103.055 21.7399 101.437 21.3129 99.7911 21.3056C98.1165 21.2477 96.486 21.8495 95.2506 22.9816C94.6968 23.4528 94.2502 24.0368 93.9406 24.6947C93.631 25.3526 93.4657 26.0692 93.4557 26.7962C93.4585 27.8956 93.8621 28.9563 94.5908 29.7794C95.6816 31.0995 98.2774 32.8595 102.378 35.0592C104.761 36.2645 107.051 37.6453 109.229 39.1901C110.409 40.0985 111.374 41.2571 112.053 42.5827C112.704 43.8482 113.044 45.2509 113.043 46.6741C113.049 48 112.771 49.3118 112.227 50.5209C111.683 51.73 110.885 52.8082 109.889 53.6827C107.672 55.6883 104.758 56.7452 101.771 56.6265C100.789 56.6311 99.8089 56.5515 98.8408 56.3885C97.6921 56.1344 96.5594 55.8128 95.4486 55.4254C94.3959 55.0285 93.3025 54.7494 92.1884 54.5935C91.9966 54.5835 91.8049 54.6136 91.6255 54.6818C91.446 54.7499 91.2826 54.8547 91.1458 54.9894C90.8073 55.4713 90.6108 56.0385 90.5784 56.6265H89.6017V44.3509H90.5784C90.851 46.3671 91.4764 48.3196 92.4261 50.1189C93.297 51.4835 94.5249 52.5837 95.9765 53.3001C97.5912 54.1503 99.3919 54.5858 101.217 54.5674C103.113 54.6721 104.978 54.0488 106.43 52.8247C107.03 52.3187 107.511 51.6882 107.842 50.977C108.172 50.2659 108.344 49.4913 108.344 48.7071C108.329 47.7716 108.08 46.8547 107.618 46.0408C107.054 45.053 106.284 44.1978 105.361 43.533C103.545 42.3167 101.668 41.1933 99.7383 40.1672C97.4664 38.9548 95.2831 37.583 93.2049 36.0623C92.0036 35.1484 91.0019 33.9984 90.2614 32.6831C89.5883 31.4348 89.2432 30.036 89.2583 28.6178C89.2507 27.3645 89.5104 26.124 90.0203 24.9791C90.5301 23.8342 91.2783 22.8113 92.2148 21.9784C94.2572 20.0942 96.9613 19.0933 99.7383 19.1937C101.828 19.2366 103.887 19.713 105.784 20.5928C106.434 20.9343 107.14 21.1578 107.869 21.2528C108.282 21.2692 108.685 21.1222 108.991 20.8435C109.373 20.3696 109.616 19.7982 109.691 19.1937L110.667 19.1937Z" fill="#F8F8F9"/>
<path d="M140.684 43.8236H126.825L124.396 49.4726C123.91 50.4476 123.605 51.5033 123.499 52.5877C123.506 52.8718 123.581 53.1502 123.716 53.4003C123.851 53.6503 124.044 53.8649 124.277 54.0268C124.796 54.4401 125.918 54.7083 127.643 54.8313V55.8083H116.371V54.8313C117.867 54.5678 118.835 54.2247 119.275 53.8021C120.173 52.9574 121.167 51.2416 122.258 48.6547L134.85 19.1941H135.774L148.234 48.9711C149.237 51.3645 150.148 52.9176 150.966 53.6303C151.94 54.4007 153.143 54.8235 154.384 54.8314V55.8084H140.262V54.8314C141.687 54.7617 142.651 54.5243 143.152 54.1191C143.385 53.9489 143.574 53.7263 143.704 53.4695C143.835 53.2127 143.904 52.9287 143.904 52.6405C143.77 51.3649 143.413 50.1229 142.848 48.9711L140.684 43.8236ZM139.945 41.8702L133.873 27.4037L127.643 41.8702L139.945 41.8702Z" fill="#F8F8F9"/>
<path d="M176.637 36.6169H193.268V26.3742C193.338 25.1583 193.222 23.9387 192.925 22.7576C192.697 22.2629 192.305 21.8621 191.816 21.6227C191.084 21.2066 190.256 20.9881 189.414 20.9888H188.147V20.0124H203.457V20.9888H202.19C201.352 20.9873 200.526 21.1961 199.788 21.596C199.521 21.7222 199.282 21.9006 199.085 22.1205C198.888 22.3404 198.736 22.5975 198.64 22.8766C198.378 24.0229 198.276 25.2 198.336 26.3742V49.4723C198.267 50.6797 198.383 51.8905 198.679 53.0628C198.901 53.5527 199.283 53.9528 199.762 54.1977C200.504 54.6119 201.34 54.8299 202.19 54.8311H203.457V55.8081H188.147V54.8311H189.414C190.01 54.8833 190.611 54.7933 191.166 54.5685C191.722 54.3436 192.216 53.9904 192.608 53.5377C193.048 52.9746 193.268 51.6195 193.268 49.4724V38.5703H176.637V49.4724C176.568 50.6797 176.683 51.8906 176.98 53.0629C177.208 53.5577 177.6 53.9586 178.089 54.1977C178.821 54.6137 179.649 54.832 180.491 54.8311H181.785V55.8081H166.447V54.8311H167.715C169.193 54.8311 170.266 54.3999 170.935 53.5377C171.357 52.9746 171.568 51.6195 171.569 49.4724V26.3742C171.638 25.1583 171.523 23.9387 171.225 22.7576C171.003 22.268 170.622 21.868 170.143 21.6227C169.401 21.2084 168.565 20.9903 167.715 20.9888H166.447V20.0124H181.785V20.9888H180.491C179.652 20.9873 178.826 21.1961 178.089 21.596C177.559 21.8599 177.152 22.319 176.954 22.8766C176.68 24.0212 176.574 25.1992 176.637 26.3742L176.637 36.6169Z" fill="#F8F8F9"/>
<path d="M224.339 19.1941C226.61 19.1825 228.858 19.6476 230.939 20.5592C233.019 21.4709 234.885 22.8088 236.416 24.4866C239.821 28.0156 241.524 32.4198 241.524 37.6992C241.524 43.1375 239.808 47.6516 236.376 51.2415C234.779 52.9313 232.855 54.2796 230.722 55.2052C228.588 56.1308 226.29 56.6144 223.964 56.6267C221.639 56.639 219.335 56.1799 217.192 55.2769C215.049 54.374 213.111 53.046 211.496 51.3732C208.143 47.8716 206.467 43.3399 206.467 37.7782C206.467 32.0943 208.403 27.4572 212.275 23.8667C215.531 20.7922 219.861 19.115 224.339 19.1941ZM223.837 21.1214C222.363 21.0723 220.898 21.3691 219.56 21.988C218.221 22.6068 217.046 23.5306 216.129 24.6852C213.717 27.6417 212.512 31.971 212.512 37.673C212.512 43.5159 213.762 48.0124 216.261 51.1625C217.155 52.3182 218.31 53.2459 219.631 53.8698C220.953 54.4937 222.403 54.7962 223.863 54.7524C225.461 54.7813 227.043 54.4415 228.487 53.7592C229.932 53.077 231.2 52.0708 232.192 50.8188C234.383 48.1972 235.478 44.0616 235.478 38.412C235.478 32.2876 234.273 27.7207 231.862 24.7113C229.926 22.3184 227.251 21.1218 223.837 21.1214H223.837Z" fill="#F8F8F9"/>
<path d="M274.6 45.9086L275.471 46.0938L272.41 55.8081H244.691V54.8311H246.038C247.551 54.8311 248.633 54.3385 249.285 53.3531C249.654 52.79 249.839 51.4878 249.839 49.4463V26.3476C249.839 24.1132 249.593 22.7141 249.1 22.1505C248.705 21.7452 248.226 21.4312 247.697 21.2306C247.168 21.0299 246.602 20.9474 246.038 20.9888H244.691V20.0124H260.9V20.9888C258.999 20.9714 257.666 21.1475 256.9 21.5171C256.235 21.7948 255.682 22.2874 255.33 22.9161C255.048 23.4792 254.907 24.8254 254.907 26.9547V49.4463C254.836 50.468 254.98 51.4933 255.33 52.4557C255.551 52.8336 255.896 53.123 256.307 53.2742C256.746 53.4501 258.119 53.538 260.425 53.5378H263.038C265.784 53.5378 267.711 53.3354 268.819 52.9306C269.995 52.4789 271.039 51.7391 271.855 50.7792C273.023 49.312 273.95 47.6678 274.6 45.9086Z" fill="#F8F8F9"/>
<path d="M277.557 55.8081V54.8311H278.903C280.416 54.8311 281.49 54.3472 282.124 53.3793C282.51 52.7987 282.704 51.4965 282.704 49.4724V26.3476C282.704 24.1132 282.458 22.7141 281.965 22.1505C281.57 21.7452 281.092 21.4312 280.563 21.2305C280.034 21.0298 279.467 20.9473 278.903 20.9888H277.557V20.0124H292.128C297.478 20.0124 301.548 20.6194 304.338 21.8335C307.171 23.0878 309.53 25.2152 311.069 27.9051C312.805 30.882 313.687 34.2802 313.616 37.7257C313.616 42.7059 312.103 46.868 309.076 50.212C305.679 53.943 300.505 55.8083 293.554 55.8081H277.557ZM287.773 53.2214C289.616 53.6648 291.501 53.9125 293.396 53.9603C295.299 54.0091 297.19 53.6505 298.943 52.9083C300.696 52.1662 302.269 51.0579 303.559 49.6576C306.251 46.7893 307.598 42.8998 307.598 37.9892C307.598 33.0444 306.251 29.1462 303.559 26.2947C302.232 24.8868 300.621 23.7773 298.832 23.04C297.043 22.3027 295.118 21.9546 293.184 22.0187C291.356 22.052 289.539 22.309 287.773 22.7838V53.2214Z" fill="#F8F8F9"/>
<path d="M332.359 54.8311V55.8081H317.021V54.8311H318.289C319.767 54.8311 320.841 54.3999 321.509 53.5377C321.932 52.9746 322.143 51.6195 322.143 49.4724V26.3476C322.212 25.1404 322.096 23.9298 321.8 22.7576C321.577 22.2679 321.196 21.8679 320.717 21.6227C319.975 21.2084 319.139 20.9903 318.289 20.9888H317.021V20.0124H332.359V20.9888H331.066C330.469 20.9366 329.868 21.0266 329.313 21.2514C328.758 21.4762 328.264 21.8295 327.871 22.2822C327.431 22.8458 327.211 24.201 327.211 26.3475V49.4723C327.142 50.6796 327.258 51.8905 327.554 53.0628C327.782 53.5576 328.174 53.9586 328.663 54.1977C329.395 54.6138 330.223 54.832 331.066 54.831L332.359 54.8311Z" fill="#F8F8F9"/>
<path d="M332.967 20.0124H342.681L364.565 46.8589V26.2158C364.565 24.0162 364.319 22.6435 363.826 22.0976C363.422 21.7003 362.937 21.3954 362.404 21.2039C361.87 21.0125 361.302 20.9391 360.737 20.9888H359.497V20.0124H371.957V20.9888H370.69C369.176 20.9888 368.102 21.4465 367.469 22.3618C367.082 22.9249 366.888 24.2096 366.889 26.2159V56.3887H365.938L342.338 27.5621V49.6048C342.338 51.8049 342.576 53.1777 343.051 53.723C343.457 54.1175 343.942 54.4206 344.475 54.6117C345.008 54.8029 345.575 54.8777 346.139 54.8312H347.406V55.8082H334.946V54.8312H336.188C337.718 54.8312 338.801 54.3738 339.434 53.4589C339.821 52.8958 340.014 51.6111 340.015 49.6048V24.7111C339.312 23.8312 338.521 23.0262 337.653 22.309C336.924 21.8319 336.127 21.467 335.29 21.2263C334.53 21.0399 333.748 20.96 332.967 20.9889V20.0124Z" fill="#F8F8F9"/>
<path d="M405.905 19.1941L406.828 30.4927H405.905C404.971 27.6772 403.766 25.5566 402.288 24.1308C401.194 23.0957 399.904 22.2894 398.494 21.759C397.085 21.2286 395.583 20.9848 394.078 21.0419C389.52 21.0419 386.053 22.8457 383.677 26.4535C381.63 29.7044 380.592 33.489 380.694 37.3294C380.653 40.5528 381.33 43.7448 382.674 46.6745C383.752 49.2061 385.558 51.3606 387.861 52.8652C389.829 54.1255 392.111 54.8069 394.448 54.8314C395.74 54.8352 397.028 54.6666 398.276 54.3298C399.521 53.99 400.719 53.4934 401.839 52.8518V42.5036C401.839 40.7086 401.703 39.534 401.43 38.9798C401.16 38.4284 400.714 37.9825 400.163 37.7126C399.197 37.3566 398.167 37.208 397.14 37.2766V36.2735H410.999V37.2766H410.339C408.967 37.2766 408.026 37.7342 407.515 38.6495C407.163 39.3008 406.987 40.5855 406.987 42.5035V53.459C405.094 54.4981 403.082 55.3047 400.995 55.8612C398.845 56.3929 396.636 56.6502 394.422 56.6269C387.505 56.6269 382.252 54.4093 378.662 49.9742C375.999 46.7346 374.569 42.6578 374.623 38.4649C374.664 35.049 375.573 31.6995 377.263 28.7306C378.953 25.7617 381.369 23.2705 384.285 21.4906C387.12 19.9054 390.329 19.1122 393.576 19.1941C394.768 19.1839 395.957 19.2901 397.127 19.5111C398.669 19.8662 400.182 20.3338 401.654 20.9101C402.285 21.1871 402.952 21.3738 403.634 21.4645C403.804 21.4621 403.971 21.4188 404.12 21.3384C404.269 21.2579 404.397 21.1427 404.492 21.0024C404.797 20.4494 404.947 19.825 404.928 19.1941L405.905 19.1941Z" fill="#F8F8F9"/>
<path d="M17.4668 5.18704L17.5801 5.44482L19.5334 9.86477L20.1823 11.3314H31.2155L31.8644 9.86477L33.9311 5.18704C33.544 4.84624 33.0669 4.6243 32.5569 4.54781C32.0468 4.47132 31.5256 4.54354 31.0556 4.75579C30.5855 4.96805 30.1867 5.31134 29.9069 5.74453C29.627 6.17772 29.4781 6.68241 29.4778 7.19813H27.5023V7.19591C27.2608 7.19598 27.0246 7.12461 26.8236 6.99078C26.6226 6.85696 26.4656 6.66667 26.3725 6.44384C26.2794 6.22101 26.2542 5.97561 26.3003 5.73853C26.3463 5.50146 26.4614 5.28329 26.6311 5.11149L26.6378 5.10485L26.64 5.10262C27.0944 4.64822 27.3497 4.03192 27.3497 3.3893C27.3497 2.74668 27.0944 2.13038 26.64 1.67598L25.6867 0.722656L24.7334 1.67596C24.279 2.13036 24.0238 2.74668 24.0238 3.3893C24.0238 4.03192 24.279 4.64822 24.7334 5.10262V5.10483L24.7357 5.10703C24.8604 5.23066 24.9569 5.37982 25.0185 5.54425C25.0801 5.70869 25.1054 5.8845 25.0927 6.05964C25.0629 6.3744 24.9156 6.66638 24.6802 6.87738C24.4447 7.08838 24.1384 7.20289 23.8223 7.19811H21.9179C21.9179 6.68251 21.7693 6.17785 21.4896 5.74465C21.21 5.31146 20.8114 4.96813 20.3415 4.75583C19.8716 4.54354 19.3505 4.47131 18.8406 4.54779C18.3307 4.62427 17.8537 4.84622 17.4668 5.18702L17.4668 5.18704Z" fill="#C1121F"/>
<path d="M4.76267 22.6679C4.57626 23.8828 4.26671 25.0756 3.83871 26.2278C5.02926 26.2177 6.17251 25.7606 7.04189 24.9472L11.0103 28.9155L11.6428 28.2825C12.4786 27.446 12.948 26.3117 12.9478 25.1292C12.9475 23.9466 12.4777 22.8126 11.6415 21.9764L9.00339 19.3383C8.6662 16.3653 6.48105 14.0699 3.83871 14.0699C4.18434 14.8199 4.45262 15.6031 4.63947 16.4074H4.63625C3.80007 16.2725 2.94377 16.3379 2.13779 16.5983C1.33181 16.8586 0.599139 17.3066 0 17.9053L4.76267 22.6679Z" fill="#F8F8F9"/>
<path d="M0 57.9223H6.7354C7.46258 58.9134 8.08732 59.9758 8.6001 61.093C9.40648 60.2762 9.88655 59.1928 9.94989 58.0468C9.95658 58.0064 9.95658 57.9627 9.95995 57.9223H14.6892C14.9844 57.9221 15.2793 57.8996 15.5711 57.8549C15.6855 57.8347 15.8 57.8145 15.9111 57.7876C17.0052 57.5471 18.0005 56.9802 18.7654 56.1618C17.3249 56.0663 15.9778 55.4145 15.009 54.3442C14.9211 54.2268 14.8267 54.1144 14.7262 54.0076C13.9099 52.9544 13.4962 51.6444 13.5598 50.3134C13.6233 48.9824 14.1599 47.7178 15.0729 46.7472H15.0561C14.323 46.6993 13.5875 46.7964 12.8919 47.033C12.1963 47.2695 11.5541 47.6408 11.002 48.1256C10.45 48.6105 9.99889 49.1993 9.67455 49.8586C9.3502 50.5179 9.15896 51.2346 9.11174 51.9678C9.09715 52.1684 9.09606 52.3696 9.1084 52.5703H7.38164C5.03892 50.7056 1.87148 50.6281 0.00338092 52.4963C0.776793 52.7822 1.51893 53.1465 2.21817 53.5835C1.53237 54.0804 0.973875 54.7326 0.588361 55.4867C0.202846 56.2408 0.00122744 57.0754 0 57.9223Z" fill="#F8F8F9"/>
<path d="M2.48047 38.4297H9.26972C10.0047 39.4284 10.6352 40.4999 11.1513 41.6274C11.9926 40.7709 12.4815 39.6297 12.5213 38.4297V38.3658H15.7493V38.3456H30.5596C37.8847 38.3573 44.9853 35.8175 50.6412 31.1625C50.6435 31.1611 50.6453 31.1589 50.6463 31.1563C50.6473 31.1537 50.6474 31.1509 50.6466 31.1482C50.6459 31.1456 50.6443 31.1432 50.6421 31.1416C50.6399 31.1399 50.6372 31.139 50.6344 31.139H40.1056C39.7359 31.1469 39.3763 31.0174 39.0965 30.7755C38.8167 30.5336 38.6366 30.1966 38.5909 29.8296C38.5725 29.6298 38.596 29.4283 38.6599 29.238C38.7237 29.0478 38.8266 28.873 38.9619 28.7247C39.0971 28.5765 39.2618 28.4581 39.4454 28.3771C39.6291 28.2961 39.8275 28.2543 40.0282 28.2543L50.0757 28.2139C51.6444 28.2137 53.1595 27.6435 54.3391 26.6094C55.5187 25.5753 56.2824 24.1479 56.4879 22.5927C56.4913 22.5826 56.4846 22.5759 56.4745 22.5759H42.9532C42.5835 22.5838 42.2239 22.4543 41.9441 22.2124C41.6643 21.9705 41.4842 21.6335 41.4385 21.2665C41.4201 21.0667 41.4436 20.8652 41.5075 20.6749C41.5714 20.4847 41.6742 20.3099 41.8095 20.1616C41.9447 20.0134 42.1094 19.895 42.293 19.814C42.4766 19.733 42.6751 19.6912 42.8758 19.6912L52.2164 19.6508C53.7756 19.6519 55.2827 19.0894 56.4599 18.0669C57.637 17.0444 58.4049 15.6309 58.6219 14.0868C58.6253 14.0767 58.6186 14.07 58.6085 14.07H38.978C38.4986 14.0662 38.0233 14.157 37.5791 14.3372C37.1349 14.5175 36.7306 14.7836 36.3895 15.1204C36.0483 15.4572 35.777 15.858 35.591 16.2998C35.405 16.7416 35.3081 17.2158 35.3057 17.6952C35.3151 18.0696 35.3844 18.44 35.5111 18.7925C35.5215 18.8166 35.5305 18.8413 35.5379 18.8665C35.5548 18.9036 35.5683 18.9406 35.5817 18.9776C36.17 20.5487 36.3691 22.2388 36.162 23.9036C35.9548 25.5683 35.3477 27.1582 34.3924 28.5372C33.4371 29.9162 32.1621 31.0434 30.6763 31.8224C29.1905 32.6014 27.5382 33.009 25.8607 33.0105H13.2584C13.1493 33.0104 13.0402 33.0171 12.9319 33.0307H11.8447C11.7976 33.0307 11.7538 33.0307 11.7067 33.034H9.91934C7.55977 31.1524 4.36543 31.075 2.48381 32.96C3.2642 33.2474 4.01311 33.614 4.71884 34.0539V34.0573C4.02623 34.5569 3.46216 35.2138 3.07302 35.9739C2.68387 36.7341 2.48078 37.5757 2.48047 38.4297Z" fill="#F8F8F9"/>
<path d="M32.8426 14.9417C32.9338 14.6587 32.9925 14.3662 33.0176 14.0699H22.9971C21.1412 14.0701 19.3614 14.8075 18.0491 16.1198C16.7368 17.4321 15.9994 19.2119 15.9992 21.0678C15.9992 21.1553 15.9992 21.2428 16.006 21.327C16.2126 20.9638 16.5118 20.662 16.873 20.4521C17.2343 20.2422 17.6448 20.1317 18.0626 20.132C18.3276 20.1315 18.5907 20.1771 18.8401 20.2667C19.306 20.4273 19.71 20.7293 19.996 21.1306C20.282 21.5318 20.4357 22.0123 20.4356 22.505C20.4329 22.937 20.314 23.3603 20.0913 23.7305C19.8686 24.1007 19.5504 24.4041 19.17 24.6088C19.0105 24.6866 18.8554 24.7731 18.7055 24.868C17.8246 25.4149 17.0734 26.1471 16.5043 27.0139C15.9352 27.8806 15.5618 28.861 15.4102 29.8867H25.5182C26.8467 29.8869 28.1489 29.5162 29.278 28.8163C30.2116 28.2382 30.9989 27.4521 31.5784 26.5194C32.1579 25.5866 32.5138 24.5326 32.6184 23.4395C32.723 22.3464 32.5735 21.244 32.1815 20.2183C31.7894 19.1925 31.1655 18.2714 30.3585 17.5267C30.9434 17.3156 31.4716 16.9726 31.9024 16.5243C32.3333 16.076 32.655 15.5344 32.8426 14.9417Z" fill="#F8F8F9"/>
<path d="M17.7664 70.6052C17.6304 71.4477 17.6962 72.3105 17.9583 73.1227C18.2205 73.9348 18.6715 74.6732 19.2744 75.2772L24.0776 70.4773C25.3037 70.6637 26.5072 70.9762 27.6691 71.4097C27.6571 70.2089 27.196 69.0562 26.3766 68.1783L26.3295 68.1346L30.1162 64.3478C30.1408 64.3165 30.1691 64.2882 30.2004 64.2637C30.2441 64.2233 30.2912 64.1829 30.3418 64.1425C30.6629 63.8921 31.0588 63.757 31.466 63.7588C31.9574 63.7593 32.4286 63.9549 32.7757 64.3028C33.1229 64.6506 33.3177 65.122 33.3173 65.6134C33.3179 65.8647 33.2663 66.1135 33.1658 66.3439C33.6952 66.0738 34.1397 65.6627 34.4503 65.1561C34.7609 64.6495 34.9257 64.0669 34.9263 63.4727C34.9287 62.783 34.7079 62.1111 34.2968 61.5574C34.2598 61.5103 34.2261 61.4665 34.1891 61.4227C32.8267 59.6805 31.3752 58.0099 29.8402 56.4175C30.0489 56.2997 30.2508 56.1718 30.4461 56.0405C30.4495 56.0405 30.4495 56.0338 30.4495 56.0338C30.5605 55.9597 30.6716 55.879 30.776 55.7982C30.7868 55.7926 30.797 55.7859 30.8062 55.778C30.8231 55.7645 30.8365 55.7544 30.8534 55.7409C30.8671 55.7287 30.8817 55.7175 30.8971 55.7073C31.0048 55.6232 31.1058 55.5356 31.2102 55.4447C31.3078 55.364 31.3986 55.2798 31.4895 55.1889C31.4929 55.1889 31.4929 55.1889 31.4963 55.1856C31.5302 55.1579 31.5617 55.1275 31.5905 55.0947C31.6079 55.0807 31.6237 55.0649 31.6377 55.0476C31.6915 54.9937 31.7487 54.9365 31.7959 54.8793L31.8194 54.8557C31.8679 54.8097 31.9128 54.7602 31.9541 54.7076C31.9701 54.6943 31.9837 54.6784 31.9945 54.6605C32.0719 54.5763 32.1459 54.4888 32.2166 54.3979C32.3008 54.2936 32.3849 54.1859 32.4623 54.0748C32.4892 54.0378 32.5128 54.0008 32.5398 53.9637C32.5499 53.9503 32.5566 53.9368 32.5633 53.9267C32.6273 53.8392 32.6845 53.7517 32.7384 53.6608C32.7571 53.6363 32.774 53.6104 32.7888 53.5834C32.8528 53.479 32.91 53.3747 32.9706 53.2704C32.9842 53.2498 32.9965 53.2284 33.0076 53.2064C33.0514 53.1289 33.0918 53.0515 33.1321 52.9708C33.136 52.9604 33.1405 52.9503 33.1456 52.9404C33.1893 52.8529 33.2332 52.7621 33.2735 52.6712C33.3139 52.5803 33.3543 52.4894 33.3913 52.3985V52.3951C33.3935 52.3922 33.3947 52.3887 33.3947 52.3851C33.4082 52.348 33.425 52.3076 33.4418 52.2706C33.4788 52.1951 33.529 52.1267 33.5899 52.0686C33.6628 51.9946 33.7498 51.9358 33.8458 51.8959C33.9418 51.856 34.0448 51.8358 34.1487 51.8364C34.3577 51.8368 34.5582 51.919 34.7074 52.0653C34.7214 52.0837 34.7372 52.1006 34.7546 52.1158L34.97 52.3279L36.993 54.3508C37.1729 54.5343 37.3795 54.6897 37.6056 54.8119C37.7606 54.8949 37.9228 54.9636 38.0903 55.0173C38.1609 55.0375 38.2283 55.0543 38.299 55.0711C38.3343 55.0813 38.3703 55.0892 38.4067 55.0947C38.945 55.2047 39.4931 55.26 40.0425 55.2596C40.1603 55.2596 40.2782 55.2563 40.396 55.2495C40.4037 55.4417 40.373 55.6335 40.3059 55.8138C40.2387 55.994 40.1363 56.1591 40.0048 56.2994C39.8732 56.4398 39.7151 56.5525 39.5396 56.6312C39.364 56.7098 39.1746 56.7528 38.9823 56.7575C39.44 57.2015 40.0248 57.4916 40.6553 57.5875C41.2857 57.6833 41.9304 57.5802 42.4994 57.2923C43.0685 57.0045 43.5335 56.5463 43.8298 55.9816C44.1261 55.4169 44.2389 54.7739 44.1525 54.1421C45.5721 53.3104 46.7059 52.0674 47.404 50.5775C47.907 49.5005 48.1679 48.3262 48.1681 47.1375C48.1681 46.986 48.1613 46.8345 48.1546 46.6797V46.6595C48.4199 46.4637 48.6677 46.2452 48.8952 46.0065C49.4759 45.4019 49.9229 44.6819 50.207 43.8932C50.4912 43.1045 50.6062 42.2648 50.5445 41.4288C50.5352 41.2402 50.5138 41.0524 50.4805 40.8666C50.3492 40.8767 50.2214 40.8801 50.0901 40.8801C49.3299 40.8759 48.5785 40.7164 47.8822 40.4114C47.1859 40.1063 46.5593 39.6622 46.0408 39.1062C45.4815 38.5147 44.8821 37.9625 44.2467 37.4535C44.2467 37.4535 43.725 37.9988 43.1393 38.7494C42.9879 38.948 42.8297 39.1567 42.6748 39.3755C42.2054 40.0482 41.5916 40.6075 40.8781 41.0123C40.1647 41.4171 39.3697 41.6571 38.5514 41.7149C38.5481 41.9034 38.5514 42.0919 38.5649 42.277C38.6422 43.3604 39.0116 44.4027 39.6339 45.2929C40.2562 46.1832 41.1082 46.888 42.0992 47.3327L42.19 47.3866C42.2204 47.4034 42.2507 47.4236 42.281 47.4438C42.5063 47.5947 42.6907 47.7992 42.8176 48.0388C42.9444 48.2785 43.0099 48.5459 43.008 48.8171C43.0076 49.0483 42.9592 49.2768 42.8659 49.4882C42.7727 49.6997 42.6365 49.8895 42.4661 50.0457C42.1505 50.332 41.7369 50.4861 41.3109 50.4761C40.8848 50.4661 40.479 50.2927 40.1772 49.9918L33.6607 43.4752C33.5159 43.3305 33.3677 43.1925 33.2129 43.0612L33.0817 42.9501C31.7324 41.8352 30.0354 41.2279 28.2851 41.2335H16.3964C16.6718 42.9077 17.4653 44.4534 18.6651 45.6531C18.6617 45.6632 18.655 45.6699 18.6516 45.68C18.4625 46.0444 18.3038 46.4238 18.177 46.8143C17.9068 47.6296 17.7704 48.4833 17.7731 49.3422C17.7721 51.3389 18.5094 53.2655 19.8432 54.7514C19.8564 54.764 19.8688 54.7775 19.8802 54.7917C20.8934 55.9059 21.8662 57.0559 22.7986 58.2419C22.8827 58.3462 22.9635 58.4539 23.0477 58.5617C23.8252 59.558 24.5735 60.579 25.2928 61.6247L22.0782 64.8393C22.0451 64.8713 22.0136 64.905 21.984 64.9403L20.7217 66.2025C17.7226 66.5425 15.4068 68.7438 15.4102 71.4097C16.1648 71.0608 16.9532 70.7901 17.763 70.6019L17.7664 70.6052Z" fill="#F8F8F9"/>
</svg>
