<svg width="265" height="48" viewBox="0 0 265 48" fill="none" xmlns="http://www.w3.org/2000/svg">
<path d="M54.4411 34.8365V35.4656H44.5664V34.8365H45.3823C46.3341 34.8365 47.0252 34.559 47.4557 34.0038C47.7278 33.6413 47.8638 32.7688 47.8636 31.3865V16.4982C47.9082 15.721 47.8337 14.9415 47.6428 14.1869C47.4997 13.8716 47.254 13.6141 46.9459 13.4562C46.4679 13.1895 45.9297 13.049 45.3823 13.0481H44.5664V12.4194H54.4411V13.048H53.6082C53.224 13.0145 52.8373 13.0724 52.4799 13.2172C52.1224 13.3619 51.8044 13.5893 51.5518 13.8808C51.2683 14.2437 51.1267 15.1161 51.1269 16.4981V31.3864C51.0822 32.1637 51.1567 32.9433 51.3477 33.6981C51.4943 34.0167 51.7465 34.2748 52.0616 34.4288C52.533 34.6966 53.066 34.8371 53.6082 34.8365L54.4411 34.8365Z" fill="#1D3557"/>
<path d="M71.2508 11.8921V19.8631H70.6219C70.496 18.5856 70.1237 17.3447 69.5255 16.2089C68.99 15.2942 68.2103 14.5468 67.2737 14.0505C66.3496 13.5314 65.3083 13.2565 64.2484 13.2518C63.1702 13.2145 62.1205 13.602 61.3251 14.3309C60.9686 14.6342 60.681 15.0102 60.4817 15.4338C60.2824 15.8574 60.1759 16.3187 60.1695 16.7868C60.1713 17.4946 60.4311 18.1775 60.9003 18.7075C61.6026 19.5574 63.2738 20.6905 65.914 22.1067C67.448 22.8827 68.9222 23.7717 70.3244 24.7663C71.0845 25.3511 71.7055 26.0971 72.1429 26.9505C72.5621 27.7653 72.7806 28.6684 72.7803 29.5847C72.7844 30.4383 72.6051 31.2829 72.2547 32.0613C71.9044 32.8398 71.391 33.5339 70.7494 34.097C69.3224 35.3882 67.446 36.0686 65.5231 35.9922C64.891 35.9952 64.2599 35.9439 63.6366 35.839C62.897 35.6754 62.1677 35.4684 61.4525 35.219C60.7748 34.9634 60.0709 34.7838 59.3536 34.6834C59.2301 34.6769 59.1067 34.6963 58.9911 34.7402C58.8756 34.7841 58.7704 34.8515 58.6823 34.9383C58.4644 35.2485 58.3379 35.6137 58.317 35.9922H57.6882V28.0889H58.317C58.4925 29.387 58.8952 30.6441 59.5066 31.8025C60.0674 32.6811 60.8579 33.3894 61.7925 33.8507C62.832 34.398 63.9913 34.6784 65.1661 34.6666C66.3872 34.734 67.5879 34.3326 68.523 33.5446C68.9087 33.2188 69.2187 32.8128 69.4315 32.355C69.6442 31.8972 69.7547 31.3984 69.755 30.8936C69.7455 30.2912 69.5848 29.701 69.2877 29.1769C68.9244 28.541 68.4288 27.9904 67.8345 27.5623C66.6652 26.7793 65.457 26.056 64.2144 25.3953C62.7517 24.6148 61.346 23.7316 60.008 22.7525C59.2346 22.1641 58.5897 21.4238 58.1129 20.5769C57.6796 19.7732 57.4574 18.8726 57.4671 17.9596C57.4622 17.1527 57.6294 16.354 57.9577 15.6169C58.2859 14.8798 58.7676 14.2212 59.3706 13.685C60.6855 12.4719 62.4265 11.8275 64.2144 11.8921C65.5601 11.9197 66.8854 12.2264 68.1064 12.7929C68.5254 13.0128 68.98 13.1566 69.4491 13.2178C69.7152 13.2284 69.9747 13.1337 70.1714 12.9543C70.4177 12.6492 70.5738 12.2813 70.622 11.8921L71.2508 11.8921Z" fill="#1D3557"/>
<path d="M90.5751 27.7492H81.6522L80.0886 31.3861C79.7754 32.0138 79.5796 32.6935 79.5108 33.3917C79.5157 33.5746 79.5636 33.7539 79.6507 33.9149C79.7378 34.0758 79.8616 34.214 80.0121 34.3182C80.3463 34.5843 81.0686 34.757 82.1791 34.8362V35.4652H74.9219V34.8362C75.8848 34.6665 76.508 34.4456 76.7914 34.1735C77.3694 33.6297 78.0095 32.5251 78.7119 30.8595L86.8189 11.8921H87.4137L95.4359 31.0632C96.0817 32.6042 96.668 33.6041 97.1949 34.0629C97.8217 34.5589 98.5964 34.8312 99.3958 34.8362V35.4652H90.3032V34.8362C91.2209 34.7914 91.8412 34.6385 92.1641 34.3776C92.3138 34.2681 92.4356 34.1248 92.5198 33.9594C92.6039 33.7941 92.648 33.6112 92.6484 33.4257C92.5619 32.6045 92.3318 31.8048 91.9686 31.0632L90.5751 27.7492ZM90.0991 26.4915L86.19 17.1777L82.1792 26.4915L90.0991 26.4915Z" fill="#1D3557"/>
<path d="M113.723 23.1098H124.43V16.5153C124.475 15.7325 124.4 14.9473 124.209 14.1869C124.062 13.8684 123.81 13.6103 123.495 13.4562C123.024 13.1883 122.491 13.0476 121.948 13.0481H121.133V12.4194H130.99V13.048H130.174C129.634 13.0471 129.103 13.1815 128.628 13.439C128.456 13.5203 128.302 13.6351 128.175 13.7767C128.048 13.9183 127.951 14.0838 127.888 14.2635C127.72 15.0015 127.654 15.7593 127.693 16.5153V31.3864C127.648 32.1638 127.723 32.9433 127.914 33.6981C128.057 34.0135 128.303 34.2711 128.611 34.4288C129.089 34.6954 129.627 34.8358 130.174 34.8365H130.99V35.4656H121.133V34.8365H121.948C122.333 34.8702 122.719 34.8122 123.077 34.6675C123.434 34.5227 123.752 34.2953 124.005 34.0038C124.288 33.6413 124.43 32.7688 124.43 31.3865V24.3674H113.723V31.3865C113.678 32.1638 113.752 32.9434 113.943 33.6981C114.09 34.0167 114.342 34.2748 114.657 34.4288C115.129 34.6966 115.662 34.8371 116.204 34.8365H117.037V35.4656H107.162V34.8365H107.978C108.93 34.8365 109.621 34.559 110.051 34.0038C110.323 33.6413 110.459 32.7688 110.459 31.3865V16.5153C110.504 15.7325 110.43 14.9473 110.238 14.1869C110.095 13.8716 109.85 13.6141 109.542 13.4562C109.064 13.1895 108.525 13.049 107.978 13.0481H107.162V12.4194H117.037V13.048H116.204C115.664 13.0471 115.132 13.1815 114.657 13.439C114.316 13.6089 114.054 13.9045 113.926 14.2635C113.75 15.0004 113.682 15.7588 113.723 16.5153L113.723 23.1098Z" fill="#1D3557"/>
<path d="M144.434 11.8923C145.896 11.8849 147.344 12.1843 148.683 12.7713C150.023 13.3582 151.224 14.2196 152.209 15.2998C154.402 17.5718 155.498 20.4074 155.498 23.8064C155.498 27.3077 154.393 30.2139 152.184 32.5252C151.155 33.6131 149.917 34.4813 148.544 35.0772C147.17 35.6731 145.69 35.9844 144.193 35.9924C142.696 36.0003 141.213 35.7047 139.833 35.1233C138.453 34.542 137.206 33.687 136.166 32.6101C134.007 30.3556 132.928 27.438 132.928 23.8572C132.928 20.1978 134.174 17.2123 136.667 14.9007C138.763 12.9213 141.551 11.8414 144.434 11.8923ZM144.111 13.1332C143.162 13.1016 142.219 13.2927 141.357 13.6911C140.495 14.0896 139.739 14.6843 139.148 15.4276C137.596 17.3312 136.82 20.1184 136.82 23.7895C136.82 27.5513 137.624 30.4463 139.233 32.4744C139.809 33.2184 140.553 33.8157 141.403 34.2174C142.254 34.6191 143.188 34.8138 144.128 34.7856C145.156 34.8043 146.175 34.5855 147.105 34.1462C148.035 33.707 148.851 33.0592 149.49 32.2531C150.901 30.5653 151.606 27.9027 151.606 24.2653C151.606 20.3223 150.83 17.382 149.278 15.4445C148.031 13.9039 146.309 13.1335 144.111 13.1332H144.111Z" fill="#1D3557"/>
<path d="M176.795 29.092L177.356 29.2113L175.385 35.4656H157.539V34.8366H158.406C159.38 34.8366 160.077 34.5194 160.496 33.885C160.734 33.5225 160.853 32.684 160.853 31.3697V16.4982C160.853 15.0596 160.695 14.1589 160.377 13.796C160.123 13.5351 159.815 13.3329 159.474 13.2037C159.134 13.0745 158.769 13.0214 158.406 13.0481H157.539V12.4194H167.975V13.0481C166.751 13.0369 165.892 13.1502 165.4 13.3882C164.971 13.567 164.615 13.8841 164.388 14.2889C164.207 14.6515 164.116 15.5182 164.116 16.8891V31.3697C164.07 32.0275 164.163 32.6876 164.388 33.3072C164.531 33.5505 164.753 33.7368 165.017 33.8342C165.3 33.9474 166.184 34.004 167.668 34.0039H169.351C171.119 34.0039 172.359 33.8736 173.073 33.6129C173.83 33.3221 174.502 32.8459 175.028 32.2278C175.78 31.2832 176.377 30.2246 176.795 29.092Z" fill="#1D3557"/>
<path d="M178.697 35.4656V34.8366H179.564C180.538 34.8366 181.23 34.525 181.638 33.9018C181.887 33.5281 182.011 32.6896 182.011 31.3865V16.4982C182.011 15.0596 181.853 14.1589 181.535 13.796C181.281 13.535 180.973 13.3329 180.633 13.2037C180.292 13.0745 179.927 13.0214 179.564 13.0481H178.697V12.4194H188.079C191.523 12.4194 194.143 12.8103 195.939 13.5919C197.764 14.3995 199.283 15.7692 200.273 17.501C201.391 19.4176 201.959 21.6054 201.913 23.8237C201.913 27.0301 200.939 29.7097 198.99 31.8627C196.803 34.2647 193.472 35.4657 188.997 35.4656H178.697ZM185.275 33.8002C186.461 34.0857 187.675 34.2451 188.895 34.2759C190.12 34.3074 191.338 34.0764 192.466 33.5986C193.595 33.1209 194.608 32.4073 195.438 31.5057C197.172 29.659 198.038 27.1549 198.038 23.9934C198.038 20.8098 197.172 18.3 195.438 16.4642C194.584 15.5577 193.546 14.8434 192.395 14.3687C191.243 13.894 190.004 13.6699 188.759 13.7111C187.582 13.7326 186.412 13.898 185.275 14.2037V33.8002Z" fill="#1D3557"/>
<path d="M213.982 34.8365V35.4656H204.107V34.8365H204.923C205.875 34.8365 206.566 34.559 206.997 34.0038C207.269 33.6413 207.405 32.7688 207.405 31.3865V16.4982C207.449 15.721 207.375 14.9415 207.184 14.1869C207.041 13.8716 206.795 13.6141 206.487 13.4562C206.009 13.1895 205.471 13.049 204.923 13.0481H204.107V12.4194H213.982V13.048H213.149C212.765 13.0144 212.378 13.0724 212.021 13.2171C211.663 13.3619 211.345 13.5893 211.093 13.8808C210.809 14.2437 210.668 15.1161 210.668 16.4981V31.3864C210.623 32.1637 210.698 32.9433 210.889 33.6981C211.035 34.0167 211.288 34.2748 211.603 34.4288C212.074 34.6966 212.607 34.8371 213.149 34.8365L213.982 34.8365Z" fill="#1D3557"/>
<path d="M214.373 12.419H220.627L234.717 29.7034V16.4129C234.717 14.9967 234.558 14.1129 234.241 13.7615C233.981 13.5056 233.669 13.3093 233.325 13.1861C232.982 13.0628 232.616 13.0156 232.252 13.0476H231.454V12.4189H239.476V13.0476H238.66C237.685 13.0476 236.994 13.3423 236.586 13.9316C236.337 14.2941 236.213 15.1212 236.213 16.4129V35.8389H235.601L220.406 17.2796V31.4712C220.406 32.8877 220.559 33.7715 220.865 34.1226C221.127 34.3766 221.439 34.5718 221.782 34.6948C222.125 34.8179 222.491 34.8661 222.854 34.8361H223.67V35.4652H215.648V34.8361H216.447C217.432 34.8361 218.129 34.5416 218.537 33.9526C218.786 33.5901 218.91 32.7629 218.911 31.4713V15.4441C218.458 14.8776 217.949 14.3593 217.39 13.8975C216.921 13.5904 216.408 13.3554 215.869 13.2005C215.38 13.0805 214.876 13.029 214.373 13.0476V12.419Z" fill="#1D3557"/>
<path d="M261.333 11.8924L261.927 19.1667H261.333C260.732 17.354 259.955 15.9887 259.004 15.0708C258.3 14.4043 257.469 13.8852 256.562 13.5437C255.654 13.2022 254.687 13.0453 253.718 13.082C250.784 13.082 248.552 14.2434 247.022 16.5661C245.704 18.6591 245.036 21.0958 245.101 23.5683C245.075 25.6436 245.511 27.6987 246.376 29.5849C247.07 31.2148 248.233 32.6019 249.716 33.5706C250.983 34.3821 252.452 34.8207 253.956 34.8365C254.789 34.839 255.617 34.7304 256.421 34.5136C257.223 34.2948 257.994 33.9751 258.715 33.562V26.8996C258.715 25.7439 258.627 24.9877 258.452 24.6309C258.278 24.2759 257.991 23.9888 257.636 23.815C257.014 23.5858 256.351 23.4902 255.69 23.5343V22.8885H264.613V23.5343H264.188C263.304 23.5343 262.698 23.8289 262.369 24.4182C262.143 24.8376 262.029 25.6647 262.029 26.8995V33.9529C260.81 34.622 259.515 35.1412 258.171 35.4995C256.787 35.8418 255.365 36.0075 253.939 35.9925C249.487 35.9925 246.104 34.5648 243.793 31.7093C242.079 29.6236 241.158 26.9988 241.192 24.2994C241.219 22.1001 241.804 19.9437 242.892 18.0322C243.98 16.1208 245.536 14.5169 247.413 13.3709C249.238 12.3503 251.305 11.8396 253.395 11.8924C254.162 11.8858 254.928 11.9542 255.682 12.0964C256.674 12.3251 257.648 12.6262 258.596 12.9972C259.002 13.1755 259.431 13.2957 259.871 13.3541C259.98 13.3525 260.087 13.3247 260.183 13.2729C260.28 13.2211 260.362 13.1469 260.423 13.0566C260.619 12.7006 260.716 12.2985 260.704 11.8924L261.333 11.8924Z" fill="#1D3557"/>
<path d="M11.2461 2.87428L11.3191 3.04024L12.5766 5.88591L12.9944 6.83017H20.0978L20.5156 5.88591L21.8462 2.87428C21.597 2.65486 21.2898 2.51197 20.9614 2.46272C20.6331 2.41348 20.2975 2.45997 19.9949 2.59663C19.6923 2.73329 19.4355 2.95431 19.2553 3.2332C19.0752 3.5121 18.9792 3.83703 18.9791 4.16906H17.7072V4.16764C17.5517 4.16768 17.3997 4.12173 17.2702 4.03557C17.1408 3.94941 17.0398 3.8269 16.9798 3.68343C16.9198 3.53997 16.9037 3.38198 16.9333 3.22934C16.9629 3.07671 17.037 2.93625 17.1463 2.82564L17.1506 2.82136L17.152 2.81993C17.4446 2.52737 17.609 2.13058 17.609 1.71685C17.609 1.30311 17.4446 0.906324 17.152 0.61377L16.5383 0L15.9245 0.613757C15.632 0.906312 15.4676 1.30311 15.4676 1.71685C15.4676 2.13058 15.632 2.52737 15.9245 2.81993V2.82135L15.926 2.82276C16.0063 2.90236 16.0684 2.99839 16.1081 3.10426C16.1477 3.21013 16.164 3.32332 16.1558 3.43608C16.1367 3.63873 16.0418 3.82671 15.8902 3.96256C15.7386 4.0984 15.5414 4.17213 15.3379 4.16905H14.1118C14.1118 3.8371 14.0161 3.51218 13.8361 3.23328C13.6561 2.95438 13.3994 2.73334 13.0969 2.59666C12.7944 2.45998 12.4589 2.41347 12.1306 2.46271C11.8023 2.51195 11.4952 2.65485 11.2461 2.87427L11.2461 2.87428Z" fill="#C1121F"/>
<path d="M3.06632 14.1289C2.94631 14.9111 2.74701 15.679 2.47146 16.4208C3.23796 16.4143 3.97401 16.12 4.53374 15.5963L7.08866 18.1512L7.49592 17.7437C8.03404 17.2051 8.33624 16.4748 8.33608 15.7135C8.33592 14.9522 8.03342 14.222 7.49506 13.6837L5.7966 11.9852C5.57951 10.0711 4.17266 8.59326 2.47146 8.59326C2.69398 9.07611 2.8667 9.58038 2.987 10.0982H2.98493C2.44658 10.0113 1.89527 10.0534 1.37636 10.2211C0.857449 10.3887 0.38574 10.6771 0 11.0626L3.06632 14.1289Z" fill="#1D3557"/>
<path d="M0 36.8265H4.33641C4.80459 37.4646 5.20681 38.1486 5.53695 38.8679C6.05612 38.342 6.3652 37.6445 6.40598 36.9066C6.41029 36.8806 6.41029 36.8525 6.41246 36.8265H9.45724C9.64734 36.8264 9.83715 36.8119 10.0251 36.7831C10.0987 36.7701 10.1724 36.7571 10.2439 36.7398C10.9483 36.5849 11.5891 36.2199 12.0816 35.693C11.1542 35.6316 10.2869 35.2119 9.66313 34.5228C9.60654 34.4473 9.54577 34.3749 9.48111 34.3061C8.9555 33.6281 8.6892 32.7847 8.73012 31.9277C8.77103 31.0708 9.11648 30.2566 9.7043 29.6317H9.6935C9.22146 29.6009 8.74797 29.6634 8.30011 29.8157C7.85225 29.968 7.4388 30.207 7.08338 30.5192C6.72795 30.8313 6.43753 31.2104 6.2287 31.6349C6.01988 32.0593 5.89676 32.5208 5.86636 32.9929C5.85696 33.122 5.85626 33.2515 5.86421 33.3807H4.75248C3.24417 32.1802 1.20491 32.1303 0.00217672 33.3331C0.500118 33.5171 0.977924 33.7517 1.42811 34.0331C0.986576 34.353 0.627004 34.7729 0.378801 35.2584C0.130597 35.7439 0.000790253 36.2812 0 36.8265Z" fill="#1D3557"/>
<path d="M1.59766 24.2767H5.96874C6.44195 24.9197 6.84787 25.6096 7.18013 26.3355C7.72179 25.784 8.03658 25.0493 8.06217 24.2767V24.2355H10.1404V24.2225H19.6757C24.3918 24.2301 28.9633 22.5949 32.6047 19.5979C32.6062 19.597 32.6073 19.5956 32.608 19.5939C32.6086 19.5922 32.6087 19.5904 32.6082 19.5887C32.6077 19.587 32.6067 19.5855 32.6053 19.5844C32.6038 19.5834 32.6021 19.5828 32.6003 19.5827H25.8216C25.5836 19.5878 25.3521 19.5045 25.172 19.3487C24.9918 19.193 24.8758 18.976 24.8464 18.7398C24.8346 18.6111 24.8497 18.4814 24.8908 18.3589C24.9319 18.2364 24.9982 18.1239 25.0852 18.0284C25.1723 17.933 25.2784 17.8567 25.3966 17.8046C25.5148 17.7524 25.6426 17.7255 25.7718 17.7255L32.2406 17.6995C33.2506 17.6994 34.2261 17.3323 34.9855 16.6665C35.745 16.0007 36.2366 15.0817 36.369 14.0805C36.3711 14.074 36.3668 14.0696 36.3603 14.0696H27.655C27.4169 14.0747 27.1854 13.9913 27.0053 13.8356C26.8252 13.6799 26.7092 13.4629 26.6798 13.2266C26.6679 13.098 26.6831 12.9682 26.7242 12.8457C26.7653 12.7233 26.8315 12.6107 26.9186 12.5153C27.0057 12.4198 27.1117 12.3436 27.2299 12.2914C27.3481 12.2393 27.4759 12.2124 27.6051 12.2124L33.6189 12.1864C34.6227 12.1871 35.593 11.8249 36.3509 11.1666C37.1087 10.5083 37.6031 9.59825 37.7429 8.60417C37.7451 8.59767 37.7407 8.59334 37.7342 8.59334H25.0956C24.787 8.59088 24.481 8.64934 24.195 8.76539C23.909 8.88144 23.6487 9.05279 23.4291 9.26961C23.2094 9.48643 23.0347 9.74447 22.915 10.0289C22.7953 10.3134 22.7329 10.6187 22.7313 10.9273C22.7374 11.1684 22.782 11.4069 22.8635 11.6338C22.8703 11.6493 22.8761 11.6652 22.8809 11.6815C22.8917 11.7053 22.9004 11.7291 22.909 11.753C23.2878 12.7645 23.416 13.8526 23.2826 14.9244C23.1493 15.9962 22.7584 17.0198 22.1433 17.9077C21.5283 18.7955 20.7074 19.5212 19.7508 20.0228C18.7942 20.5243 17.7305 20.7867 16.6504 20.7877H8.53675C8.46648 20.7876 8.39627 20.7919 8.32654 20.8007H7.62657C7.59623 20.8007 7.56806 20.8007 7.53771 20.8028H6.38698C4.86783 19.5914 2.81124 19.5416 1.59981 20.7552C2.10224 20.9402 2.58441 21.1762 3.03877 21.4595V21.4616C2.59286 21.7833 2.22969 22.2062 1.97915 22.6956C1.72861 23.185 1.59785 23.7269 1.59766 24.2767Z" fill="#1D3557"/>
<path d="M21.1453 9.15454C21.204 8.97233 21.2418 8.78402 21.258 8.59326H14.8065C13.6117 8.59341 12.4658 9.06813 11.6209 9.91303C10.776 10.7579 10.3013 11.9038 10.3011 13.0987C10.3011 13.155 10.3011 13.2114 10.3055 13.2655C10.4385 13.0318 10.6311 12.8374 10.8637 12.7023C11.0963 12.5671 11.3606 12.496 11.6296 12.4962C11.8002 12.4959 11.9696 12.5252 12.1302 12.5829C12.4301 12.6863 12.6902 12.8808 12.8744 13.1391C13.0585 13.3974 13.1574 13.7068 13.1574 14.024C13.1557 14.3021 13.0791 14.5747 12.9357 14.813C12.7923 15.0513 12.5874 15.2467 12.3425 15.3785C12.2399 15.4285 12.14 15.4842 12.0435 15.5453C11.4763 15.8974 10.9927 16.3689 10.6263 16.9269C10.2599 17.4849 10.0195 18.1161 9.92188 18.7765H16.4297C17.285 18.7767 18.1234 18.538 18.8504 18.0873C19.4514 17.7152 19.9583 17.209 20.3314 16.6085C20.7044 16.008 20.9336 15.3294 21.001 14.6256C21.0683 13.9219 20.972 13.2121 20.7196 12.5517C20.4672 11.8914 20.0656 11.2983 19.546 10.8189C19.9225 10.6829 20.2626 10.4621 20.54 10.1735C20.8174 9.88483 21.0245 9.53618 21.1453 9.15454Z" fill="#1D3557"/>
<path d="M11.4389 44.9923C11.3513 45.5348 11.3937 46.0902 11.5624 46.6131C11.7312 47.136 12.0216 47.6114 12.4098 48.0003L15.5022 44.91C16.2916 45.03 17.0664 45.2311 17.8145 45.5103C17.8067 44.7372 17.5099 43.995 16.9823 43.4298L16.952 43.4017L19.39 40.9637C19.4058 40.9435 19.424 40.9253 19.4442 40.9095C19.4723 40.8835 19.5027 40.8575 19.5352 40.8314C19.7419 40.6703 19.9969 40.5833 20.259 40.5844C20.5754 40.5847 20.8787 40.7107 21.1023 40.9346C21.3258 41.1586 21.4512 41.4621 21.4509 41.7785C21.4513 41.9403 21.4181 42.1004 21.3534 42.2488C21.6942 42.0749 21.9804 41.8102 22.1804 41.4841C22.3804 41.1579 22.4864 40.7828 22.4868 40.4002C22.4884 39.9562 22.3462 39.5236 22.0815 39.1671C22.0577 39.1368 22.036 39.1086 22.0122 39.0804C21.1351 37.9587 20.2005 36.8831 19.2123 35.8579C19.3466 35.7821 19.4767 35.6997 19.6024 35.6152C19.6045 35.6152 19.6045 35.6109 19.6045 35.6109C19.676 35.5632 19.7476 35.5112 19.8147 35.4592C19.8217 35.4556 19.8283 35.4513 19.8342 35.4462C19.8451 35.4375 19.8537 35.431 19.8646 35.4223C19.8734 35.4144 19.8829 35.4072 19.8927 35.4007C19.9621 35.3465 20.0271 35.2901 20.0943 35.2316C20.1572 35.1796 20.2156 35.1254 20.2742 35.0669C20.2763 35.0669 20.2764 35.0669 20.2785 35.0648C20.3003 35.047 20.3206 35.0274 20.3392 35.0063C20.3504 34.9973 20.3605 34.9871 20.3696 34.9759C20.4042 34.9413 20.441 34.9044 20.4714 34.8676L20.4866 34.8524C20.5177 34.8228 20.5467 34.7909 20.5732 34.757C20.5835 34.7485 20.5924 34.7382 20.5992 34.7267C20.6491 34.6725 20.6968 34.6162 20.7423 34.5577C20.7965 34.4905 20.8506 34.4212 20.9005 34.3497C20.9178 34.3258 20.933 34.302 20.9503 34.2781C20.9568 34.2695 20.9612 34.2608 20.9655 34.2543C21.0067 34.198 21.0435 34.1416 21.0782 34.0831C21.0903 34.0673 21.1011 34.0507 21.1107 34.0332C21.1518 33.9661 21.1887 33.8989 21.2277 33.8317C21.2365 33.8185 21.2444 33.8047 21.2515 33.7905C21.2797 33.7407 21.3057 33.6908 21.3317 33.6388C21.3342 33.6321 21.3371 33.6256 21.3404 33.6193C21.3685 33.563 21.3967 33.5045 21.4227 33.4459C21.4488 33.3874 21.4747 33.3289 21.4986 33.2704V33.2682C21.5 33.2664 21.5008 33.2641 21.5008 33.2618C21.5094 33.2379 21.5203 33.2119 21.5311 33.1881C21.5549 33.1394 21.5872 33.0954 21.6265 33.058C21.6734 33.0103 21.7294 32.9725 21.7912 32.9468C21.853 32.9212 21.9193 32.9081 21.9862 32.9085C22.1208 32.9088 22.2498 32.9617 22.3459 33.0559C22.3549 33.0677 22.3651 33.0786 22.3763 33.0884L22.515 33.2249L23.8174 34.5273C23.9333 34.6455 24.0662 34.7456 24.2118 34.8242C24.3116 34.8776 24.4161 34.9219 24.5239 34.9564C24.5694 34.9694 24.6127 34.9803 24.6582 34.9911C24.681 34.9976 24.7042 35.0027 24.7276 35.0063C25.0742 35.0771 25.427 35.1127 25.7808 35.1125C25.8566 35.1125 25.9325 35.1103 26.0084 35.106C26.0133 35.2297 25.9936 35.3532 25.9503 35.4692C25.9071 35.5853 25.8412 35.6916 25.7565 35.7819C25.6718 35.8722 25.57 35.9449 25.457 35.9955C25.3439 36.0461 25.222 36.0738 25.0982 36.0768C25.3929 36.3627 25.7694 36.5495 26.1753 36.6112C26.5812 36.6729 26.9962 36.6065 27.3626 36.4212C27.729 36.2358 28.0284 35.9408 28.2191 35.5773C28.4099 35.2137 28.4825 34.7997 28.4269 34.393C29.3408 33.8575 30.0708 33.0572 30.5203 32.098C30.8442 31.4046 31.0121 30.6486 31.0122 29.8832C31.0122 29.7857 31.0079 29.6882 31.0035 29.5885V29.5755C31.1744 29.4495 31.3339 29.3088 31.4803 29.1551C31.8542 28.7658 32.142 28.3022 32.3249 27.7945C32.5079 27.2867 32.5819 26.7461 32.5422 26.2078C32.5362 26.0864 32.5225 25.9655 32.501 25.8459C32.4165 25.8524 32.3342 25.8546 32.2496 25.8546C31.7602 25.8519 31.2765 25.7492 30.8282 25.5528C30.3799 25.3564 29.9764 25.0704 29.6426 24.7125C29.2825 24.3316 28.8966 23.9761 28.4875 23.6484C28.4875 23.6484 28.1516 23.9995 27.7746 24.4828C27.6771 24.6106 27.5752 24.745 27.4755 24.8859C27.1733 25.319 26.7781 25.6791 26.3188 25.9397C25.8594 26.2003 25.3476 26.3548 24.8208 26.392C24.8186 26.5134 24.8208 26.6347 24.8295 26.7539C24.8792 27.4515 25.117 28.1225 25.5177 28.6957C25.9184 29.2688 26.4669 29.7226 27.1049 30.0089L27.1634 30.0436C27.1829 30.0544 27.2024 30.0674 27.2219 30.0804C27.367 30.1776 27.4857 30.3092 27.5674 30.4635C27.6491 30.6178 27.6912 30.79 27.69 30.9646C27.6898 31.1134 27.6586 31.2605 27.5986 31.3967C27.5385 31.5329 27.4509 31.6551 27.3411 31.7556C27.1379 31.9399 26.8717 32.0392 26.5974 32.0327C26.3231 32.0263 26.0618 31.9146 25.8675 31.7209L21.672 27.5254C21.5788 27.4322 21.4834 27.3434 21.3837 27.2588L21.2992 27.1873C20.4305 26.4695 19.338 26.0785 18.2111 26.0821H10.5569C10.7342 27.16 11.245 28.1551 12.0175 28.9275C12.0153 28.934 12.011 28.9384 12.0088 28.9449C11.887 29.1795 11.7848 29.4237 11.7033 29.6752C11.5293 30.2001 11.4414 30.7497 11.4432 31.3027C11.4425 32.5882 11.9172 33.8286 12.776 34.7852C12.7845 34.7933 12.7925 34.802 12.7998 34.8112C13.4521 35.5285 14.0784 36.269 14.6787 37.0325C14.7329 37.0997 14.7849 37.169 14.8391 37.2384C15.3397 37.8799 15.8215 38.5372 16.2845 39.2105L14.2149 41.2801C14.1936 41.3007 14.1733 41.3224 14.1542 41.3451L13.3416 42.1577C11.4107 42.3766 9.91971 43.7939 9.92188 45.5103C10.4077 45.2856 10.9153 45.1113 11.4367 44.9901L11.4389 44.9923Z" fill="#1D3557"/>
</svg>
