<svg width="30" height="20" viewBox="0 0 30 20" fill="none" xmlns="http://www.w3.org/2000/svg">
<path d="M0.939937 16.9304C0.930796 17.3461 1.05128 17.7542 1.28481 18.0981C1.51834 18.442 1.85339 18.7046 2.24307 18.8494C2.63275 18.9942 3.0578 19.014 3.45924 18.906C3.86068 18.798 4.21833 18.5676 4.48278 18.2469L14.9671 6.00855L25.4478 18.2469C25.6109 18.4687 25.8179 18.6546 26.0561 18.7927C26.2943 18.9308 26.5586 19.0182 26.8321 19.0495C27.1057 19.0808 27.3827 19.0553 27.646 18.9746C27.9093 18.8938 28.1531 18.7596 28.362 18.5803C28.571 18.401 28.7405 18.1804 28.8603 17.9325C28.9801 17.6846 29.0474 17.4146 29.058 17.1394C29.0686 16.8643 29.0225 16.5899 28.9221 16.3335C28.8218 16.077 28.6696 15.8441 28.4751 15.6492L16.4867 1.63745C16.2989 1.41741 16.0658 1.24072 15.8031 1.11956C15.5405 0.998401 15.2546 0.935661 14.9653 0.935661C14.676 0.935661 14.3901 0.998401 14.1275 1.11956C13.8648 1.24072 13.6315 1.41741 13.4437 1.63745L1.44375 15.6492C1.12936 16.0032 0.950614 16.4572 0.939476 16.9304L0.939937 16.9304Z" fill="#C1121F"/>
</svg>
