<svg width="48" height="48" viewBox="0 0 48 48" fill="none" xmlns="http://www.w3.org/2000/svg">
<path d="M23.9994 0.00836182C37.2491 0.00836182 47.9909 10.7502 47.9909 23.9999C47.9909 37.2496 37.2491 47.9915 23.9994 47.9915C10.7497 47.9915 0.0078125 37.2496 0.0078125 23.9999C0.0078125 10.7502 10.7497 0.00836182 23.9994 0.00836182ZM32.0356 32.9249C32.0337 32.9296 31.34 34.6612 29.4791 33.8493C28.4675 33.4068 22.1712 28.2768 20.7631 27.1987C23.5062 24.733 26.2494 22.2674 28.9906 19.799L18.695 26.3371C17.0103 25.7699 15.3247 25.2065 13.6419 24.6355C12.1409 24.1537 11.9694 22.484 13.6475 21.8484L33.1972 14.1777C33.3847 14.098 35.5616 13.2702 35.5616 15.2052L32.0356 32.9249ZM30.9969 32.5359L34.4506 15.1209C34.3925 14.863 33.6191 15.1987 33.6172 15.1996L14.0206 22.8852C13.4084 23.0887 13.3934 23.3755 14.0037 23.593L18.545 25.1221L30.7662 17.3634C31.1816 17.1102 31.8078 16.9312 32.1706 17.3671C32.5372 17.8087 32.2297 18.3515 31.8734 18.6843C31.5209 19.0134 24.6059 25.2309 22.4919 27.1312L29.9778 32.8612C30.635 33.1152 30.9247 32.6746 30.9969 32.5359ZM23.9994 1.11649C11.3609 1.11649 1.115 11.3615 1.115 23.9999C1.115 36.6384 11.3609 46.8834 23.9994 46.8834C36.6378 46.8834 46.8837 36.6384 46.8837 23.9999C46.8837 11.3615 36.6378 1.11649 23.9994 1.11649Z" fill="white"/>
</svg>
