<svg width="48" height="48" viewBox="0 0 48 48" fill="none" xmlns="http://www.w3.org/2000/svg">
<path d="M24 0C37.2544 0 48 10.7456 48 24C48 37.2544 37.2544 48 24 48C10.7456 48 0 37.2544 0 24C0 10.7456 10.7456 0 24 0ZM37.7025 15.2006C37.2966 14.9259 35.9888 15.8138 35.4694 15.9637C35.8022 15.5756 37.4278 13.6369 36.8438 13.0209C35.8838 13.5675 34.7503 14.0972 33.2034 14.1431C32.1047 13.0978 30.6797 12.525 29.1647 12.525C25.5441 12.525 22.8469 15.7697 23.3109 19.3069C17.6006 19.2103 13.3941 13.5694 12.7097 13.6341C12.5259 13.65 12.3619 13.755 12.2691 13.9144C10.7025 16.6331 11.6597 19.0331 12.6206 20.4703C12.1894 20.2134 11.4956 19.9959 11.4825 20.76C11.4403 23.3672 12.6591 24.8925 13.8431 25.7578C13.5009 25.8047 13.2778 26.1478 13.3791 26.4816C14.2003 29.1684 16.1916 30.1209 17.5059 30.4575C14.8462 32.4637 10.9922 31.8094 10.9491 31.8009C10.3687 31.6987 10.0397 32.4497 10.5066 32.8059C13.6781 35.2266 18.5972 35.9841 22.4719 35.1469C34.8253 32.22 35.2172 20.9325 35.1919 19.0097C35.5519 18.6741 37.9087 16.6753 37.7025 15.2006ZM34.0566 18.8072C34.0584 18.8381 34.2478 21.8972 32.8847 25.3059C31.0631 29.8603 27.4725 32.8022 22.2234 34.0462C22.1672 34.0575 17.3109 35.0634 13.0481 33.0356C14.8706 32.9597 17.3944 32.4459 19.17 30.4528C19.3181 30.2869 19.3538 30.03 19.2628 29.8266C18.9047 29.0334 16.2534 29.9212 14.7909 26.9728C15.3103 26.9953 16.7812 26.9859 16.6894 26.1722C16.5816 25.2206 13.2216 25.6444 12.6703 21.7575C13.155 21.96 14.5059 22.3519 14.7225 21.6103C14.9775 20.7356 11.3934 18.9731 12.9 15.1922C14.4216 16.7766 18.7612 20.7234 24.0225 20.4216C24.375 20.4009 24.6234 20.0634 24.5372 19.7203C23.7825 16.7119 25.9847 13.6537 29.1647 13.6537C30.4528 13.6537 31.6613 14.1684 32.5669 15.1022C33.0028 15.5522 34.9209 14.8941 35.4028 14.7141C35.1131 15.0534 34.6209 15.5972 34.0547 16.0416C33.8587 16.1953 33.7866 16.4597 33.8775 16.6912C34.1184 17.3081 35.4722 16.9125 35.955 16.815C35.5556 17.2397 34.2094 18.2878 34.0566 18.8072ZM24 1.10719C11.3569 1.10719 1.10719 11.3569 1.10719 24C1.10719 36.6431 11.3569 46.8928 24 46.8928C36.6431 46.8928 46.8928 36.6431 46.8928 24C46.8928 11.3569 36.6431 1.10719 24 1.10719Z" fill="white"/>
</svg>
